<?xml version="1.0" encoding="UTF-8"?>
<svg xmlns="http://www.w3.org/2000/svg" xmlns:xlink="http://www.w3.org/1999/xlink" width="504pt" height="504pt" viewBox="0 0 504 504" version="1.1">
<g id="surface51">
<rect x="0" y="0" width="504" height="504" style="fill:rgb(100%,100%,100%);fill-opacity:1;stroke:none;"/>
<path style="fill:none;stroke-width:0.75;stroke-linecap:round;stroke-linejoin:round;stroke:rgb(0%,0%,0%);stroke-opacity:1;stroke-miterlimit:10;" d="M 162.628906 112 L 162.714844 109.292969 L 162.972656 106.59375 L 163.398438 103.917969 L 163.996094 101.273438 L 164.761719 98.675781 L 165.6875 96.128906 L 166.773438 93.644531 L 168.015625 91.238281 L 169.40625 88.910156 L 170.945313 86.679688 L 172.617188 84.550781 L 174.425781 82.53125 L 176.355469 80.628906 L 178.40625 78.855469 L 180.5625 77.214844 L 182.816406 75.710938 L 185.164063 74.355469 L 187.59375 73.152344 L 190.09375 72.105469 L 192.652344 71.21875 L 195.265625 70.5 L 197.917969 69.941406 L 200.601563 69.558594 L 203.300781 69.34375 L 206.011719 69.300781 L 208.71875 69.429688 L 211.410156 69.730469 L 214.078125 70.199219 L 216.714844 70.839844 L 219.300781 71.644531 L 221.832031 72.609375 L 224.296875 73.734375 L 226.6875 75.015625 L 228.988281 76.445313 L 231.195313 78.015625 L 233.300781 79.726563 L 235.289063 81.5625 L 237.160156 83.523438 L 238.902344 85.601563 L 240.507813 87.785156 L 241.972656 90.0625 L 243.292969 92.429688 L 244.457031 94.878906 L 245.464844 97.394531 L 246.308594 99.96875 L 246.988281 102.589844 L 247.503906 105.253906 L 247.84375 107.941406 L 248.015625 110.644531 L 248.015625 113.355469 L 247.84375 116.058594 L 247.503906 118.746094 L 246.988281 121.410156 L 246.308594 124.03125 L 245.464844 126.605469 L 244.457031 129.121094 L 243.292969 131.570313 L 241.972656 133.9375 L 240.507813 136.214844 L 238.902344 138.398438 L 237.160156 140.476563 L 235.289063 142.4375 L 233.300781 144.273438 L 231.195313 145.984375 L 228.988281 147.554688 L 226.6875 148.984375 L 224.296875 150.265625 L 221.832031 151.390625 L 219.300781 152.355469 L 216.714844 153.160156 L 214.078125 153.800781 L 211.410156 154.269531 L 208.71875 154.570313 L 206.011719 154.699219 L 203.300781 154.65625 L 200.601563 154.441406 L 197.917969 154.058594 L 195.265625 153.5 L 192.652344 152.78125 L 190.09375 151.894531 L 187.59375 150.847656 L 185.164063 149.644531 L 182.816406 148.289063 L 180.5625 146.785156 L 178.40625 145.144531 L 176.355469 143.371094 L 174.425781 141.46875 L 172.617188 139.449219 L 170.945313 137.320313 L 169.40625 135.089844 L 168.015625 132.761719 L 166.773438 130.355469 L 165.6875 127.871094 L 164.761719 125.324219 L 163.996094 122.726563 L 163.398438 120.082031 L 162.972656 117.40625 L 162.714844 114.707031 L 162.628906 112 "/>
<path style="fill:none;stroke-width:0.75;stroke-linecap:round;stroke-linejoin:round;stroke:rgb(0%,0%,0%);stroke-opacity:1;stroke-miterlimit:10;" d="M 255.960938 112 L 256.046875 109.292969 L 256.304688 106.59375 L 256.734375 103.917969 L 257.328125 101.273438 L 258.09375 98.675781 L 259.019531 96.128906 L 260.105469 93.644531 L 261.347656 91.238281 L 262.742188 88.910156 L 264.277344 86.679688 L 265.953125 84.550781 L 267.757813 82.53125 L 269.691406 80.628906 L 271.738281 78.855469 L 273.894531 77.214844 L 276.152344 75.710938 L 278.5 74.355469 L 280.925781 73.152344 L 283.425781 72.105469 L 285.988281 71.21875 L 288.597656 70.5 L 291.25 69.941406 L 293.933594 69.558594 L 296.632813 69.34375 L 299.34375 69.300781 L 302.050781 69.429688 L 304.746094 69.730469 L 307.414063 70.199219 L 310.046875 70.839844 L 312.632813 71.644531 L 315.164063 72.609375 L 317.628906 73.734375 L 320.019531 75.015625 L 322.320313 76.445313 L 324.53125 78.015625 L 326.632813 79.726563 L 328.625 81.5625 L 330.492188 83.523438 L 332.234375 85.601563 L 333.84375 87.785156 L 335.308594 90.0625 L 336.625 92.429688 L 337.789063 94.878906 L 338.796875 97.394531 L 339.640625 99.96875 L 340.324219 102.589844 L 340.835938 105.253906 L 341.179688 107.941406 L 341.351563 110.644531 L 341.351563 113.355469 L 341.179688 116.058594 L 340.835938 118.746094 L 340.324219 121.410156 L 339.640625 124.03125 L 338.796875 126.605469 L 337.789063 129.121094 L 336.625 131.570313 L 335.308594 133.9375 L 333.84375 136.214844 L 332.234375 138.398438 L 330.492188 140.476563 L 328.625 142.4375 L 326.632813 144.273438 L 324.53125 145.984375 L 322.320313 147.554688 L 320.019531 148.984375 L 317.628906 150.265625 L 315.164063 151.390625 L 312.632813 152.355469 L 310.046875 153.160156 L 307.414063 153.800781 L 304.746094 154.269531 L 302.050781 154.570313 L 299.34375 154.699219 L 296.632813 154.65625 L 293.933594 154.441406 L 291.25 154.058594 L 288.597656 153.5 L 285.988281 152.78125 L 283.425781 151.894531 L 280.925781 150.847656 L 278.5 149.644531 L 276.152344 148.289063 L 273.894531 146.785156 L 271.738281 145.144531 L 269.691406 143.371094 L 267.757813 141.46875 L 265.953125 139.449219 L 264.277344 137.320313 L 262.742188 135.089844 L 261.347656 132.761719 L 260.105469 130.355469 L 259.019531 127.871094 L 258.09375 125.324219 L 257.328125 122.726563 L 256.734375 120.082031 L 256.304688 117.40625 L 256.046875 114.707031 L 255.960938 112 "/>
<path style="fill:none;stroke-width:0.75;stroke-linecap:round;stroke-linejoin:round;stroke:rgb(0%,0%,0%);stroke-opacity:1;stroke-miterlimit:10;" d="M 392 109.199219 L 350 109.199219 L 350.019531 107.867188 L 350.085938 106.535156 L 350.191406 105.207031 L 350.339844 103.882813 L 350.527344 102.5625 L 350.757813 101.25 L 351.03125 99.945313 L 351.347656 98.652344 L 351.703125 97.367188 L 352.097656 96.09375 L 352.53125 94.835938 L 353.007813 93.589844 L 353.523438 92.359375 L 354.078125 91.148438 L 354.667969 89.953125 L 355.296875 88.78125 L 355.964844 87.625 L 356.667969 86.492188 L 357.40625 85.382813 L 358.179688 84.296875 L 358.984375 83.238281 L 359.824219 82.203125 L 360.699219 81.195313 L 361.601563 80.214844 L 362.539063 79.265625 L 363.503906 78.347656 L 364.496094 77.457031 L 365.515625 76.601563 L 366.5625 75.777344 L 367.636719 74.988281 L 368.734375 74.230469 L 369.855469 73.511719 L 371 72.828125 L 372.164063 72.179688 L 373.347656 71.566406 L 374.550781 70.996094 L 375.773438 70.460938 L 377.011719 69.964844 L 378.261719 69.511719 L 379.53125 69.09375 L 380.808594 68.71875 L 382.097656 68.382813 L 383.398438 68.089844 L 384.707031 67.839844 L 386.023438 67.628906 L 387.34375 67.457031 L 388.671875 67.332031 L 390 67.246094 L 391.332031 67.207031 L 392.667969 67.207031 L 394 67.246094 L 395.328125 67.332031 L 396.65625 67.457031 L 397.976563 67.628906 L 399.292969 67.839844 L 400.601563 68.089844 L 401.902344 68.382813 L 403.191406 68.71875 L 404.46875 69.09375 L 405.738281 69.511719 L 406.988281 69.964844 L 408.226563 70.460938 L 409.449219 70.996094 L 410.652344 71.566406 L 411.835938 72.179688 L 413 72.828125 L 414.144531 73.511719 L 415.265625 74.230469 L 416.363281 74.988281 L 417.4375 75.777344 L 418.484375 76.601563 L 419.503906 77.457031 L 420.496094 78.347656 L 421.460938 79.265625 L 422.398438 80.214844 L 423.300781 81.195313 L 424.175781 82.203125 L 425.015625 83.238281 L 425.820313 84.296875 L 426.59375 85.382813 L 427.332031 86.492188 L 428.035156 87.625 L 428.703125 88.78125 L 429.332031 89.953125 L 429.921875 91.148438 L 430.476563 92.359375 L 430.992188 93.589844 L 431.46875 94.835938 L 431.902344 96.09375 L 432.296875 97.367188 L 432.652344 98.652344 L 432.96875 99.945313 L 433.242188 101.25 L 433.472656 102.5625 L 433.660156 103.882813 L 433.808594 105.207031 L 433.914063 106.535156 L 433.980469 107.867188 L 434 109.199219 L 392 109.199219 "/>
<path style="fill:none;stroke-width:0.75;stroke-linecap:round;stroke-linejoin:round;stroke:rgb(0%,0%,0%);stroke-opacity:1;stroke-miterlimit:10;" d="M 392 114.800781 L 434 114.800781 L 433.980469 116.132813 L 433.914063 117.464844 L 433.808594 118.792969 L 433.660156 120.117188 L 433.472656 121.4375 L 433.242188 122.75 L 432.96875 124.054688 L 432.652344 125.347656 L 432.296875 126.632813 L 431.902344 127.90625 L 431.46875 129.164063 L 430.992188 130.410156 L 430.476563 131.640625 L 429.921875 132.851563 L 429.332031 134.046875 L 428.703125 135.21875 L 428.035156 136.375 L 427.332031 137.507813 L 426.59375 138.617188 L 425.820313 139.703125 L 425.015625 140.761719 L 424.175781 141.796875 L 423.300781 142.804688 L 422.398438 143.785156 L 421.460938 144.734375 L 420.496094 145.652344 L 419.503906 146.542969 L 418.484375 147.398438 L 417.4375 148.222656 L 416.363281 149.011719 L 415.265625 149.769531 L 414.144531 150.488281 L 413 151.171875 L 411.835938 151.820313 L 410.652344 152.433594 L 409.449219 153.003906 L 408.226563 153.539063 L 406.988281 154.035156 L 405.738281 154.488281 L 404.46875 154.90625 L 403.191406 155.28125 L 401.902344 155.617188 L 400.601563 155.910156 L 399.292969 156.160156 L 397.976563 156.371094 L 396.65625 156.542969 L 395.328125 156.667969 L 394 156.753906 L 392.667969 156.792969 L 391.332031 156.792969 L 390 156.753906 L 388.671875 156.667969 L 387.34375 156.542969 L 386.023438 156.371094 L 384.707031 156.160156 L 383.398438 155.910156 L 382.097656 155.617188 L 380.808594 155.28125 L 379.53125 154.90625 L 378.261719 154.488281 L 377.011719 154.035156 L 375.773438 153.539063 L 374.550781 153.003906 L 373.347656 152.433594 L 372.164063 151.820313 L 371 151.171875 L 369.855469 150.488281 L 368.734375 149.769531 L 367.636719 149.011719 L 366.5625 148.222656 L 365.515625 147.398438 L 364.496094 146.542969 L 363.503906 145.652344 L 362.539063 144.734375 L 361.601563 143.785156 L 360.699219 142.804688 L 359.824219 141.796875 L 358.984375 140.761719 L 358.179688 139.703125 L 357.40625 138.617188 L 356.667969 137.507813 L 355.964844 136.375 L 355.296875 135.21875 L 354.667969 134.046875 L 354.078125 132.851563 L 353.523438 131.640625 L 353.007813 130.410156 L 352.53125 129.164063 L 352.097656 127.90625 L 351.703125 126.632813 L 351.347656 125.347656 L 351.03125 124.054688 L 350.757813 122.75 L 350.527344 121.4375 L 350.339844 120.117188 L 350.191406 118.792969 L 350.085938 117.464844 L 350.019531 116.132813 L 350 114.800781 L 392 114.800781 "/>
<path style="fill:none;stroke-width:0.75;stroke-linecap:round;stroke-linejoin:round;stroke:rgb(0%,0%,0%);stroke-opacity:1;stroke-miterlimit:10;" d="M 69.292969 205.332031 L 69.378906 202.625 L 69.636719 199.925781 L 70.066406 197.25 L 70.664063 194.609375 L 71.425781 192.007813 L 72.351563 189.460938 L 73.441406 186.980469 L 74.683594 184.570313 L 76.074219 182.246094 L 77.609375 180.011719 L 79.285156 177.882813 L 81.09375 175.863281 L 83.023438 173.960938 L 85.070313 172.1875 L 87.226563 170.546875 L 89.484375 169.046875 L 91.832031 167.691406 L 94.257813 166.488281 L 96.757813 165.441406 L 99.320313 164.554688 L 101.933594 163.832031 L 104.585938 163.277344 L 107.265625 162.890625 L 109.96875 162.675781 L 112.675781 162.632813 L 115.382813 162.761719 L 118.078125 163.0625 L 120.746094 163.53125 L 123.378906 164.171875 L 125.96875 164.976563 L 128.5 165.945313 L 130.964844 167.070313 L 133.351563 168.347656 L 135.65625 169.777344 L 137.863281 171.351563 L 139.964844 173.058594 L 141.957031 174.898438 L 143.828125 176.859375 L 145.570313 178.933594 L 147.175781 181.117188 L 148.640625 183.394531 L 149.957031 185.765625 L 151.121094 188.210938 L 152.128906 190.726563 L 152.976563 193.300781 L 153.65625 195.925781 L 154.167969 198.585938 L 154.511719 201.273438 L 154.683594 203.976563 L 154.683594 206.6875 L 154.511719 209.394531 L 154.167969 212.082031 L 153.65625 214.742188 L 152.976563 217.363281 L 152.128906 219.941406 L 151.121094 222.457031 L 149.957031 224.902344 L 148.640625 227.269531 L 147.175781 229.550781 L 145.570313 231.730469 L 143.828125 233.808594 L 141.957031 235.769531 L 139.964844 237.609375 L 137.863281 239.316406 L 135.65625 240.890625 L 133.351563 242.316406 L 130.964844 243.597656 L 128.5 244.722656 L 125.96875 245.691406 L 123.378906 246.496094 L 120.746094 247.132813 L 118.078125 247.605469 L 115.382813 247.90625 L 112.675781 248.035156 L 109.96875 247.992188 L 107.265625 247.777344 L 104.585938 247.390625 L 101.933594 246.835938 L 99.320313 246.113281 L 96.757813 245.226563 L 94.257813 244.179688 L 91.832031 242.976563 L 89.484375 241.621094 L 87.226563 240.121094 L 85.070313 238.480469 L 83.023438 236.703125 L 81.09375 234.804688 L 79.285156 232.785156 L 77.609375 230.652344 L 76.074219 228.421875 L 74.683594 226.097656 L 73.441406 223.6875 L 72.351563 221.207031 L 71.425781 218.660156 L 70.664063 216.058594 L 70.066406 213.414063 L 69.636719 210.738281 L 69.378906 208.042969 L 69.292969 205.332031 "/>
<path style="fill:none;stroke-width:0.75;stroke-linecap:round;stroke-linejoin:round;stroke:rgb(0%,0%,0%);stroke-opacity:1;stroke-miterlimit:10;" d="M 205.332031 202.535156 L 163.332031 202.535156 L 163.355469 201.199219 L 163.417969 199.871094 L 163.523438 198.539063 L 163.671875 197.214844 L 163.859375 195.898438 L 164.09375 194.585938 L 164.367188 193.28125 L 164.679688 191.984375 L 165.035156 190.699219 L 165.429688 189.429688 L 165.867188 188.167969 L 166.34375 186.921875 L 166.855469 185.695313 L 167.410156 184.480469 L 168.003906 183.289063 L 168.632813 182.113281 L 169.296875 180.957031 L 170 179.828125 L 170.738281 178.71875 L 171.511719 177.632813 L 172.320313 176.570313 L 173.160156 175.535156 L 174.03125 174.527344 L 174.9375 173.550781 L 175.871094 172.601563 L 176.835938 171.679688 L 177.828125 170.792969 L 178.851563 169.933594 L 179.898438 169.113281 L 180.972656 168.320313 L 182.070313 167.566406 L 183.191406 166.84375 L 184.332031 166.160156 L 185.496094 165.511719 L 186.683594 164.902344 L 187.886719 164.328125 L 189.105469 163.792969 L 190.34375 163.300781 L 191.597656 162.84375 L 192.863281 162.425781 L 194.140625 162.050781 L 195.429688 161.71875 L 196.730469 161.421875 L 198.039063 161.171875 L 199.355469 160.960938 L 200.679688 160.792969 L 202.003906 160.664063 L 203.335938 160.582031 L 204.667969 160.539063 L 206 160.539063 L 207.332031 160.582031 L 208.660156 160.664063 L 209.988281 160.792969 L 211.3125 160.960938 L 212.625 161.171875 L 213.933594 161.421875 L 215.234375 161.71875 L 216.523438 162.050781 L 217.804688 162.425781 L 219.070313 162.84375 L 220.324219 163.300781 L 221.558594 163.792969 L 222.78125 164.328125 L 223.984375 164.902344 L 225.167969 165.511719 L 226.332031 166.160156 L 227.476563 166.84375 L 228.597656 167.566406 L 229.695313 168.320313 L 230.769531 169.113281 L 231.816406 169.933594 L 232.835938 170.792969 L 233.832031 171.679688 L 234.796875 172.601563 L 235.730469 173.550781 L 236.632813 174.527344 L 237.507813 175.535156 L 238.347656 176.570313 L 239.15625 177.632813 L 239.929688 178.71875 L 240.664063 179.828125 L 241.367188 180.957031 L 242.035156 182.113281 L 242.664063 183.289063 L 243.257813 184.480469 L 243.808594 185.695313 L 244.324219 186.921875 L 244.800781 188.167969 L 245.234375 189.429688 L 245.632813 190.699219 L 245.988281 191.984375 L 246.300781 193.28125 L 246.574219 194.585938 L 246.804688 195.898438 L 246.996094 197.214844 L 247.144531 198.539063 L 247.25 199.871094 L 247.3125 201.199219 L 247.332031 202.535156 L 205.332031 202.535156 "/>
<path style="fill:none;stroke-width:0.75;stroke-linecap:round;stroke-linejoin:round;stroke:rgb(0%,0%,0%);stroke-opacity:1;stroke-miterlimit:10;" d="M 205.332031 208.132813 L 247.332031 208.132813 L 247.3125 209.464844 L 247.25 210.796875 L 247.144531 212.125 L 246.996094 213.449219 L 246.804688 214.769531 L 246.574219 216.082031 L 246.300781 217.386719 L 245.988281 218.679688 L 245.632813 219.964844 L 245.234375 221.238281 L 244.800781 222.5 L 244.324219 223.742188 L 243.808594 224.972656 L 243.257813 226.183594 L 242.664063 227.378906 L 242.035156 228.554688 L 241.367188 229.707031 L 240.664063 230.839844 L 239.929688 231.949219 L 239.15625 233.035156 L 238.347656 234.097656 L 237.507813 235.128906 L 236.632813 236.136719 L 235.730469 237.117188 L 234.796875 238.066406 L 233.832031 238.984375 L 232.835938 239.875 L 231.816406 240.730469 L 230.769531 241.554688 L 229.695313 242.34375 L 228.597656 243.101563 L 227.476563 243.820313 L 226.332031 244.507813 L 225.167969 245.15625 L 223.984375 245.765625 L 222.78125 246.335938 L 221.558594 246.871094 L 220.324219 247.367188 L 219.070313 247.824219 L 217.804688 248.238281 L 216.523438 248.613281 L 215.234375 248.949219 L 213.933594 249.242188 L 212.625 249.496094 L 211.3125 249.707031 L 209.988281 249.875 L 208.660156 250 L 207.332031 250.085938 L 206 250.128906 L 204.667969 250.128906 L 203.335938 250.085938 L 202.003906 250 L 200.679688 249.875 L 199.355469 249.707031 L 198.039063 249.496094 L 196.730469 249.242188 L 195.429688 248.949219 L 194.140625 248.613281 L 192.863281 248.238281 L 191.597656 247.824219 L 190.34375 247.367188 L 189.105469 246.871094 L 187.886719 246.335938 L 186.683594 245.765625 L 185.496094 245.15625 L 184.332031 244.507813 L 183.191406 243.820313 L 182.070313 243.101563 L 180.972656 242.34375 L 179.898438 241.554688 L 178.851563 240.730469 L 177.828125 239.875 L 176.835938 238.984375 L 175.871094 238.066406 L 174.9375 237.117188 L 174.03125 236.136719 L 173.160156 235.128906 L 172.320313 234.097656 L 171.511719 233.035156 L 170.738281 231.949219 L 170 230.839844 L 169.296875 229.707031 L 168.632813 228.554688 L 168.003906 227.378906 L 167.410156 226.183594 L 166.855469 224.972656 L 166.34375 223.742188 L 165.867188 222.5 L 165.429688 221.238281 L 165.035156 219.964844 L 164.679688 218.679688 L 164.367188 217.386719 L 164.09375 216.082031 L 163.859375 214.769531 L 163.671875 213.449219 L 163.523438 212.125 L 163.417969 210.796875 L 163.355469 209.464844 L 163.332031 208.132813 L 205.332031 208.132813 "/>
<path style="fill:none;stroke-width:0.75;stroke-linecap:round;stroke-linejoin:round;stroke:rgb(0%,0%,0%);stroke-opacity:1;stroke-miterlimit:10;" d="M 255.960938 205.332031 L 256.046875 202.625 L 256.304688 199.925781 L 256.734375 197.25 L 257.328125 194.609375 L 258.09375 192.007813 L 259.019531 189.460938 L 260.105469 186.980469 L 261.347656 184.570313 L 262.742188 182.246094 L 264.277344 180.011719 L 265.953125 177.882813 L 267.757813 175.863281 L 269.691406 173.960938 L 271.738281 172.1875 L 273.894531 170.546875 L 276.152344 169.046875 L 278.5 167.691406 L 280.925781 166.488281 L 283.425781 165.441406 L 285.988281 164.554688 L 288.597656 163.832031 L 291.25 163.277344 L 293.933594 162.890625 L 296.632813 162.675781 L 299.34375 162.632813 L 302.050781 162.761719 L 304.746094 163.0625 L 307.414063 163.53125 L 310.046875 164.171875 L 312.632813 164.976563 L 315.164063 165.945313 L 317.628906 167.070313 L 320.019531 168.347656 L 322.320313 169.777344 L 324.53125 171.351563 L 326.632813 173.058594 L 328.625 174.898438 L 330.492188 176.859375 L 332.234375 178.933594 L 333.84375 181.117188 L 335.308594 183.394531 L 336.625 185.765625 L 337.789063 188.210938 L 338.796875 190.726563 L 339.640625 193.300781 L 340.324219 195.925781 L 340.835938 198.585938 L 341.179688 201.273438 L 341.351563 203.976563 L 341.351563 206.6875 L 341.179688 209.394531 L 340.835938 212.082031 L 340.324219 214.742188 L 339.640625 217.363281 L 338.796875 219.941406 L 337.789063 222.457031 L 336.625 224.902344 L 335.308594 227.269531 L 333.84375 229.550781 L 332.234375 231.730469 L 330.492188 233.808594 L 328.625 235.769531 L 326.632813 237.609375 L 324.53125 239.316406 L 322.320313 240.890625 L 320.019531 242.316406 L 317.628906 243.597656 L 315.164063 244.722656 L 312.632813 245.691406 L 310.046875 246.496094 L 307.414063 247.132813 L 304.746094 247.605469 L 302.050781 247.90625 L 299.34375 248.035156 L 296.632813 247.992188 L 293.933594 247.777344 L 291.25 247.390625 L 288.597656 246.835938 L 285.988281 246.113281 L 283.425781 245.226563 L 280.925781 244.179688 L 278.5 242.976563 L 276.152344 241.621094 L 273.894531 240.121094 L 271.738281 238.480469 L 269.691406 236.703125 L 267.757813 234.804688 L 265.953125 232.785156 L 264.277344 230.652344 L 262.742188 228.421875 L 261.347656 226.097656 L 260.105469 223.6875 L 259.019531 221.207031 L 258.09375 218.660156 L 257.328125 216.058594 L 256.734375 213.414063 L 256.304688 210.738281 L 256.046875 208.042969 L 255.960938 205.332031 "/>
<path style="fill:none;stroke-width:0.75;stroke-linecap:round;stroke-linejoin:round;stroke:rgb(0%,0%,0%);stroke-opacity:1;stroke-miterlimit:10;" d="M 390.601563 202.910156 L 348.601563 202.910156 L 348.609375 202.019531 L 348.636719 201.132813 L 348.683594 200.246094 L 348.75 199.359375 L 348.835938 198.472656 L 348.9375 197.589844 L 349.058594 196.710938 L 349.199219 195.835938 L 349.359375 194.960938 L 349.535156 194.089844 L 349.730469 193.222656 L 349.945313 192.359375 L 350.179688 191.503906 L 350.429688 190.648438 L 350.695313 189.804688 L 350.984375 188.960938 L 351.285156 188.128906 L 351.609375 187.296875 L 351.949219 186.476563 L 352.304688 185.664063 L 352.675781 184.855469 L 353.066406 184.058594 L 353.472656 183.269531 L 353.898438 182.488281 L 354.339844 181.714844 L 354.792969 180.953125 L 355.265625 180.203125 L 355.753906 179.460938 L 356.257813 178.726563 L 356.777344 178.007813 L 357.3125 177.296875 L 357.863281 176.597656 L 358.425781 175.910156 L 359.003906 175.238281 L 359.597656 174.574219 L 360.203125 173.925781 L 360.824219 173.289063 L 361.457031 172.664063 L 362.101563 172.054688 L 362.761719 171.460938 L 363.433594 170.878906 L 364.117188 170.308594 L 364.8125 169.757813 L 365.519531 169.21875 L 366.238281 168.695313 L 366.964844 168.1875 L 367.707031 167.695313 L 368.457031 167.21875 L 369.214844 166.757813 L 369.984375 166.316406 L 370.765625 165.886719 L 371.550781 165.476563 L 372.347656 165.082031 L 373.152344 164.703125 L 373.964844 164.34375 L 374.785156 164 L 375.609375 163.675781 L 376.445313 163.367188 L 377.285156 163.074219 L 378.128906 162.800781 L 378.980469 162.546875 L 379.835938 162.3125 L 380.699219 162.09375 L 381.5625 161.890625 L 382.433594 161.710938 L 383.308594 161.546875 L 384.183594 161.402344 L 385.0625 161.273438 L 385.945313 161.167969 L 386.828125 161.078125 L 387.714844 161.007813 L 388.601563 160.957031 L 389.488281 160.921875 L 390.378906 160.910156 L 391.265625 160.914063 L 392.15625 160.9375 L 393.042969 160.980469 L 393.929688 161.039063 L 394.8125 161.121094 L 395.695313 161.21875 L 396.578125 161.335938 L 397.457031 161.472656 L 398.332031 161.625 L 399.203125 161.796875 L 400.070313 161.988281 L 400.933594 162.199219 L 401.792969 162.425781 L 402.644531 162.671875 L 403.496094 162.9375 L 404.335938 163.21875 L 405.171875 163.519531 L 406.003906 163.835938 L 406.828125 164.167969 L 407.640625 164.523438 L 408.449219 164.890625 L 409.25 165.277344 L 410.042969 165.679688 L 410.824219 166.097656 L 411.601563 166.535156 L 390.601563 202.910156 "/>
<path style="fill:none;stroke-width:0.75;stroke-linecap:round;stroke-linejoin:round;stroke:rgb(0%,0%,0%);stroke-opacity:1;stroke-miterlimit:10;" d="M 394.800781 205.332031 L 415.800781 168.960938 L 416.566406 169.414063 L 417.320313 169.882813 L 418.066406 170.367188 L 418.800781 170.867188 L 419.523438 171.378906 L 420.234375 171.910156 L 420.9375 172.457031 L 421.625 173.015625 L 422.304688 173.59375 L 422.96875 174.179688 L 423.621094 174.785156 L 424.261719 175.398438 L 424.886719 176.03125 L 425.5 176.671875 L 426.101563 177.328125 L 426.6875 177.996094 L 427.257813 178.679688 L 427.8125 179.371094 L 428.355469 180.074219 L 428.882813 180.789063 L 429.394531 181.515625 L 429.890625 182.253906 L 430.371094 183 L 430.835938 183.757813 L 431.285156 184.527344 L 431.714844 185.300781 L 432.132813 186.085938 L 432.53125 186.882813 L 432.910156 187.683594 L 433.277344 188.496094 L 433.625 189.3125 L 433.953125 190.136719 L 434.265625 190.96875 L 434.5625 191.804688 L 434.839844 192.652344 L 435.097656 193.5 L 435.339844 194.355469 L 435.5625 195.214844 L 435.769531 196.082031 L 435.953125 196.949219 L 436.121094 197.820313 L 436.273438 198.699219 L 436.402344 199.574219 L 436.515625 200.457031 L 436.609375 201.339844 L 436.683594 202.226563 L 436.742188 203.113281 L 436.777344 204 L 436.796875 204.890625 L 436.796875 205.777344 L 436.777344 206.664063 L 436.742188 207.554688 L 436.683594 208.441406 L 436.609375 209.324219 L 436.515625 210.210938 L 436.402344 211.089844 L 436.273438 211.96875 L 436.121094 212.84375 L 435.953125 213.71875 L 435.769531 214.585938 L 435.5625 215.449219 L 435.339844 216.3125 L 435.097656 217.167969 L 434.839844 218.015625 L 434.5625 218.859375 L 434.265625 219.699219 L 433.953125 220.53125 L 433.625 221.355469 L 433.277344 222.171875 L 432.910156 222.984375 L 432.53125 223.785156 L 432.132813 224.578125 L 431.714844 225.363281 L 431.285156 226.140625 L 430.835938 226.90625 L 430.371094 227.664063 L 429.890625 228.414063 L 429.394531 229.148438 L 428.882813 229.875 L 428.355469 230.59375 L 427.8125 231.296875 L 427.257813 231.988281 L 426.6875 232.667969 L 426.101563 233.335938 L 425.5 233.992188 L 424.886719 234.636719 L 424.261719 235.265625 L 423.621094 235.882813 L 422.96875 236.484375 L 422.304688 237.074219 L 421.625 237.648438 L 420.9375 238.210938 L 420.234375 238.753906 L 419.523438 239.285156 L 418.800781 239.800781 L 418.066406 240.300781 L 417.320313 240.785156 L 416.566406 241.253906 L 415.800781 241.707031 L 394.800781 205.332031 "/>
<path style="fill:none;stroke-width:0.75;stroke-linecap:round;stroke-linejoin:round;stroke:rgb(0%,0%,0%);stroke-opacity:1;stroke-miterlimit:10;" d="M 390.601563 207.757813 L 411.601563 244.132813 L 410.824219 244.566406 L 410.042969 244.988281 L 409.25 245.390625 L 408.449219 245.777344 L 407.640625 246.144531 L 406.828125 246.496094 L 406.003906 246.832031 L 405.171875 247.148438 L 404.335938 247.449219 L 403.496094 247.730469 L 402.644531 247.992188 L 401.792969 248.238281 L 400.933594 248.46875 L 400.070313 248.675781 L 399.203125 248.867188 L 398.332031 249.039063 L 397.457031 249.195313 L 396.578125 249.332031 L 395.695313 249.449219 L 394.8125 249.546875 L 393.929688 249.625 L 393.042969 249.6875 L 392.15625 249.730469 L 391.265625 249.753906 L 390.378906 249.757813 L 389.488281 249.742188 L 388.601563 249.710938 L 387.714844 249.660156 L 386.828125 249.589844 L 385.945313 249.5 L 385.0625 249.390625 L 384.183594 249.265625 L 383.308594 249.121094 L 382.433594 248.957031 L 381.5625 248.773438 L 380.699219 248.574219 L 379.835938 248.355469 L 378.980469 248.117188 L 378.128906 247.863281 L 377.285156 247.589844 L 376.445313 247.300781 L 375.609375 246.992188 L 374.785156 246.667969 L 373.964844 246.324219 L 373.152344 245.960938 L 372.347656 245.585938 L 371.550781 245.191406 L 370.765625 244.777344 L 369.984375 244.351563 L 369.214844 243.90625 L 368.457031 243.445313 L 367.707031 242.96875 L 366.964844 242.476563 L 366.238281 241.96875 L 365.519531 241.449219 L 364.8125 240.910156 L 364.117188 240.355469 L 363.433594 239.789063 L 362.761719 239.207031 L 362.101563 238.609375 L 361.457031 238 L 360.824219 237.378906 L 360.203125 236.742188 L 359.597656 236.09375 L 359.003906 235.429688 L 358.425781 234.753906 L 357.863281 234.070313 L 357.3125 233.371094 L 356.777344 232.660156 L 356.257813 231.9375 L 355.753906 231.207031 L 355.265625 230.464844 L 354.792969 229.710938 L 354.339844 228.949219 L 353.898438 228.179688 L 353.472656 227.398438 L 353.066406 226.609375 L 352.675781 225.808594 L 352.304688 225.003906 L 351.949219 224.1875 L 351.609375 223.367188 L 351.285156 222.539063 L 350.984375 221.703125 L 350.695313 220.863281 L 350.429688 220.015625 L 350.179688 219.164063 L 349.945313 218.304688 L 349.730469 217.445313 L 349.535156 216.578125 L 349.359375 215.707031 L 349.199219 214.832031 L 349.058594 213.957031 L 348.9375 213.074219 L 348.835938 212.191406 L 348.75 211.308594 L 348.683594 210.421875 L 348.636719 209.535156 L 348.609375 208.648438 L 348.601563 207.757813 L 390.601563 207.757813 "/>
<path style="fill:none;stroke-width:0.75;stroke-linecap:round;stroke-linejoin:round;stroke:rgb(0%,0%,0%);stroke-opacity:1;stroke-miterlimit:10;" d="M 112 295.867188 L 70 295.867188 L 70.019531 294.535156 L 70.085938 293.203125 L 70.191406 291.875 L 70.339844 290.550781 L 70.527344 289.230469 L 70.757813 287.917969 L 71.03125 286.613281 L 71.347656 285.320313 L 71.703125 284.035156 L 72.097656 282.761719 L 72.53125 281.5 L 73.007813 280.257813 L 73.523438 279.027344 L 74.078125 277.816406 L 74.667969 276.621094 L 75.296875 275.445313 L 75.964844 274.292969 L 76.667969 273.160156 L 77.40625 272.050781 L 78.179688 270.964844 L 78.984375 269.902344 L 79.824219 268.871094 L 80.699219 267.863281 L 81.601563 266.882813 L 82.539063 265.933594 L 83.503906 265.015625 L 84.496094 264.125 L 85.515625 263.269531 L 86.5625 262.445313 L 87.636719 261.65625 L 88.734375 260.898438 L 89.855469 260.179688 L 91 259.492188 L 92.164063 258.84375 L 93.347656 258.234375 L 94.550781 257.664063 L 95.773438 257.128906 L 97.011719 256.632813 L 98.261719 256.175781 L 99.53125 255.761719 L 100.808594 255.386719 L 102.097656 255.050781 L 103.398438 254.757813 L 104.707031 254.503906 L 106.023438 254.292969 L 107.34375 254.125 L 108.671875 254 L 110 253.914063 L 111.332031 253.871094 L 112.667969 253.871094 L 114 253.914063 L 115.328125 254 L 116.65625 254.125 L 117.976563 254.292969 L 119.292969 254.503906 L 120.601563 254.757813 L 121.902344 255.050781 L 123.191406 255.386719 L 124.46875 255.761719 L 125.738281 256.175781 L 126.988281 256.632813 L 128.226563 257.128906 L 129.449219 257.664063 L 130.652344 258.234375 L 131.835938 258.84375 L 133 259.492188 L 134.144531 260.179688 L 135.265625 260.898438 L 136.363281 261.65625 L 137.4375 262.445313 L 138.484375 263.269531 L 139.503906 264.125 L 140.496094 265.015625 L 141.460938 265.933594 L 142.398438 266.882813 L 143.300781 267.863281 L 144.175781 268.871094 L 145.015625 269.902344 L 145.820313 270.964844 L 146.59375 272.050781 L 147.332031 273.160156 L 148.035156 274.292969 L 148.703125 275.445313 L 149.332031 276.621094 L 149.921875 277.816406 L 150.476563 279.027344 L 150.992188 280.257813 L 151.46875 281.5 L 151.902344 282.761719 L 152.296875 284.035156 L 152.652344 285.320313 L 152.96875 286.613281 L 153.242188 287.917969 L 153.472656 289.230469 L 153.660156 290.550781 L 153.808594 291.875 L 153.914063 293.203125 L 153.980469 294.535156 L 154 295.867188 L 112 295.867188 "/>
<path style="fill:none;stroke-width:0.75;stroke-linecap:round;stroke-linejoin:round;stroke:rgb(0%,0%,0%);stroke-opacity:1;stroke-miterlimit:10;" d="M 112 301.464844 L 154 301.464844 L 153.980469 302.800781 L 153.914063 304.128906 L 153.808594 305.460938 L 153.660156 306.785156 L 153.472656 308.101563 L 153.242188 309.414063 L 152.96875 310.71875 L 152.652344 312.015625 L 152.296875 313.300781 L 151.902344 314.570313 L 151.46875 315.832031 L 150.992188 317.078125 L 150.476563 318.304688 L 149.921875 319.519531 L 149.332031 320.710938 L 148.703125 321.886719 L 148.035156 323.042969 L 147.332031 324.171875 L 146.59375 325.28125 L 145.820313 326.367188 L 145.015625 327.429688 L 144.175781 328.464844 L 143.300781 329.472656 L 142.398438 330.449219 L 141.460938 331.398438 L 140.496094 332.320313 L 139.503906 333.207031 L 138.484375 334.066406 L 137.4375 334.886719 L 136.363281 335.679688 L 135.265625 336.433594 L 134.144531 337.15625 L 133 337.839844 L 131.835938 338.488281 L 130.652344 339.097656 L 129.449219 339.671875 L 128.226563 340.207031 L 126.988281 340.699219 L 125.738281 341.15625 L 124.46875 341.574219 L 123.191406 341.949219 L 121.902344 342.28125 L 120.601563 342.578125 L 119.292969 342.828125 L 117.976563 343.039063 L 116.65625 343.207031 L 115.328125 343.335938 L 114 343.417969 L 112.667969 343.460938 L 111.332031 343.460938 L 110 343.417969 L 108.671875 343.335938 L 107.34375 343.207031 L 106.023438 343.039063 L 104.707031 342.828125 L 103.398438 342.578125 L 102.097656 342.28125 L 100.808594 341.949219 L 99.53125 341.574219 L 98.261719 341.15625 L 97.011719 340.699219 L 95.773438 340.207031 L 94.550781 339.671875 L 93.347656 339.097656 L 92.164063 338.488281 L 91 337.839844 L 89.855469 337.15625 L 88.734375 336.433594 L 87.636719 335.679688 L 86.5625 334.886719 L 85.515625 334.066406 L 84.496094 333.207031 L 83.503906 332.320313 L 82.539063 331.398438 L 81.601563 330.449219 L 80.699219 329.472656 L 79.824219 328.464844 L 78.984375 327.429688 L 78.179688 326.367188 L 77.40625 325.28125 L 76.667969 324.171875 L 75.964844 323.042969 L 75.296875 321.886719 L 74.667969 320.710938 L 74.078125 319.519531 L 73.523438 318.304688 L 73.007813 317.078125 L 72.53125 315.832031 L 72.097656 314.570313 L 71.703125 313.300781 L 71.347656 312.015625 L 71.03125 310.71875 L 70.757813 309.414063 L 70.527344 308.101563 L 70.339844 306.785156 L 70.191406 305.460938 L 70.085938 304.128906 L 70.019531 302.800781 L 70 301.464844 L 112 301.464844 "/>
<path style="fill:none;stroke-width:0.75;stroke-linecap:round;stroke-linejoin:round;stroke:rgb(0%,0%,0%);stroke-opacity:1;stroke-miterlimit:10;" d="M 205.332031 295.867188 L 163.332031 295.867188 L 163.355469 294.535156 L 163.417969 293.203125 L 163.523438 291.875 L 163.671875 290.550781 L 163.859375 289.230469 L 164.09375 287.917969 L 164.367188 286.613281 L 164.679688 285.320313 L 165.035156 284.035156 L 165.429688 282.761719 L 165.867188 281.5 L 166.34375 280.257813 L 166.855469 279.027344 L 167.410156 277.816406 L 168.003906 276.621094 L 168.632813 275.445313 L 169.296875 274.292969 L 170 273.160156 L 170.738281 272.050781 L 171.511719 270.964844 L 172.320313 269.902344 L 173.160156 268.871094 L 174.03125 267.863281 L 174.9375 266.882813 L 175.871094 265.933594 L 176.835938 265.015625 L 177.828125 264.125 L 178.851563 263.269531 L 179.898438 262.445313 L 180.972656 261.65625 L 182.070313 260.898438 L 183.191406 260.179688 L 184.332031 259.492188 L 185.496094 258.84375 L 186.683594 258.234375 L 187.886719 257.664063 L 189.105469 257.128906 L 190.34375 256.632813 L 191.597656 256.175781 L 192.863281 255.761719 L 194.140625 255.386719 L 195.429688 255.050781 L 196.730469 254.757813 L 198.039063 254.503906 L 199.355469 254.292969 L 200.679688 254.125 L 202.003906 254 L 203.335938 253.914063 L 204.667969 253.871094 L 206 253.871094 L 207.332031 253.914063 L 208.660156 254 L 209.988281 254.125 L 211.3125 254.292969 L 212.625 254.503906 L 213.933594 254.757813 L 215.234375 255.050781 L 216.523438 255.386719 L 217.804688 255.761719 L 219.070313 256.175781 L 220.324219 256.632813 L 221.558594 257.128906 L 222.78125 257.664063 L 223.984375 258.234375 L 225.167969 258.84375 L 226.332031 259.492188 L 227.476563 260.179688 L 228.597656 260.898438 L 229.695313 261.65625 L 230.769531 262.445313 L 231.816406 263.269531 L 232.835938 264.125 L 233.832031 265.015625 L 234.796875 265.933594 L 235.730469 266.882813 L 236.632813 267.863281 L 237.507813 268.871094 L 238.347656 269.902344 L 239.15625 270.964844 L 239.929688 272.050781 L 240.664063 273.160156 L 241.367188 274.292969 L 242.035156 275.445313 L 242.664063 276.621094 L 243.257813 277.816406 L 243.808594 279.027344 L 244.324219 280.257813 L 244.800781 281.5 L 245.234375 282.761719 L 245.632813 284.035156 L 245.988281 285.320313 L 246.300781 286.613281 L 246.574219 287.917969 L 246.804688 289.230469 L 246.996094 290.550781 L 247.144531 291.875 L 247.25 293.203125 L 247.3125 294.535156 L 247.332031 295.867188 L 205.332031 295.867188 "/>
<path style="fill:none;stroke-width:0.75;stroke-linecap:round;stroke-linejoin:round;stroke:rgb(0%,0%,0%);stroke-opacity:1;stroke-miterlimit:10;" d="M 205.332031 301.464844 L 247.332031 301.464844 L 247.3125 302.800781 L 247.25 304.128906 L 247.144531 305.460938 L 246.996094 306.785156 L 246.804688 308.101563 L 246.574219 309.414063 L 246.300781 310.71875 L 245.988281 312.015625 L 245.632813 313.300781 L 245.234375 314.570313 L 244.800781 315.832031 L 244.324219 317.078125 L 243.808594 318.304688 L 243.257813 319.519531 L 242.664063 320.710938 L 242.035156 321.886719 L 241.367188 323.042969 L 240.664063 324.171875 L 239.929688 325.28125 L 239.15625 326.367188 L 238.347656 327.429688 L 237.507813 328.464844 L 236.632813 329.472656 L 235.730469 330.449219 L 234.796875 331.398438 L 233.832031 332.320313 L 232.835938 333.207031 L 231.816406 334.066406 L 230.769531 334.886719 L 229.695313 335.679688 L 228.597656 336.433594 L 227.476563 337.15625 L 226.332031 337.839844 L 225.167969 338.488281 L 223.984375 339.097656 L 222.78125 339.671875 L 221.558594 340.207031 L 220.324219 340.699219 L 219.070313 341.15625 L 217.804688 341.574219 L 216.523438 341.949219 L 215.234375 342.28125 L 213.933594 342.578125 L 212.625 342.828125 L 211.3125 343.039063 L 209.988281 343.207031 L 208.660156 343.335938 L 207.332031 343.417969 L 206 343.460938 L 204.667969 343.460938 L 203.335938 343.417969 L 202.003906 343.335938 L 200.679688 343.207031 L 199.355469 343.039063 L 198.039063 342.828125 L 196.730469 342.578125 L 195.429688 342.28125 L 194.140625 341.949219 L 192.863281 341.574219 L 191.597656 341.15625 L 190.34375 340.699219 L 189.105469 340.207031 L 187.886719 339.671875 L 186.683594 339.097656 L 185.496094 338.488281 L 184.332031 337.839844 L 183.191406 337.15625 L 182.070313 336.433594 L 180.972656 335.679688 L 179.898438 334.886719 L 178.851563 334.066406 L 177.828125 333.207031 L 176.835938 332.320313 L 175.871094 331.398438 L 174.9375 330.449219 L 174.03125 329.472656 L 173.160156 328.464844 L 172.320313 327.429688 L 171.511719 326.367188 L 170.738281 325.28125 L 170 324.171875 L 169.296875 323.042969 L 168.632813 321.886719 L 168.003906 320.710938 L 167.410156 319.519531 L 166.855469 318.304688 L 166.34375 317.078125 L 165.867188 315.832031 L 165.429688 314.570313 L 165.035156 313.300781 L 164.679688 312.015625 L 164.367188 310.71875 L 164.09375 309.414063 L 163.859375 308.101563 L 163.671875 306.785156 L 163.523438 305.460938 L 163.417969 304.128906 L 163.355469 302.800781 L 163.332031 301.464844 L 205.332031 301.464844 "/>
<path style="fill:none;stroke-width:0.75;stroke-linecap:round;stroke-linejoin:round;stroke:rgb(0%,0%,0%);stroke-opacity:1;stroke-miterlimit:10;" d="M 255.960938 298.667969 L 256.046875 295.957031 L 256.304688 293.261719 L 256.734375 290.585938 L 257.328125 287.941406 L 258.09375 285.339844 L 259.019531 282.792969 L 260.105469 280.3125 L 261.347656 277.902344 L 262.742188 275.578125 L 264.277344 273.347656 L 265.953125 271.214844 L 267.757813 269.195313 L 269.691406 267.296875 L 271.738281 265.519531 L 273.894531 263.878906 L 276.152344 262.378906 L 278.5 261.023438 L 280.925781 259.820313 L 283.425781 258.773438 L 285.988281 257.886719 L 288.597656 257.164063 L 291.25 256.609375 L 293.933594 256.222656 L 296.632813 256.007813 L 299.34375 255.964844 L 302.050781 256.09375 L 304.746094 256.394531 L 307.414063 256.867188 L 310.046875 257.503906 L 312.632813 258.308594 L 315.164063 259.277344 L 317.628906 260.402344 L 320.019531 261.683594 L 322.320313 263.109375 L 324.53125 264.683594 L 326.632813 266.390625 L 328.625 268.230469 L 330.492188 270.191406 L 332.234375 272.269531 L 333.84375 274.449219 L 335.308594 276.730469 L 336.625 279.097656 L 337.789063 281.542969 L 338.796875 284.058594 L 339.640625 286.636719 L 340.324219 289.257813 L 340.835938 291.917969 L 341.179688 294.605469 L 341.351563 297.3125 L 341.351563 300.023438 L 341.179688 302.726563 L 340.835938 305.414063 L 340.324219 308.074219 L 339.640625 310.699219 L 338.796875 313.273438 L 337.789063 315.789063 L 336.625 318.234375 L 335.308594 320.605469 L 333.84375 322.882813 L 332.234375 325.066406 L 330.492188 327.140625 L 328.625 329.101563 L 326.632813 330.941406 L 324.53125 332.648438 L 322.320313 334.222656 L 320.019531 335.652344 L 317.628906 336.929688 L 315.164063 338.054688 L 312.632813 339.023438 L 310.046875 339.828125 L 307.414063 340.46875 L 304.746094 340.9375 L 302.050781 341.238281 L 299.34375 341.367188 L 296.632813 341.324219 L 293.933594 341.109375 L 291.25 340.722656 L 288.597656 340.167969 L 285.988281 339.445313 L 283.425781 338.558594 L 280.925781 337.511719 L 278.5 336.308594 L 276.152344 334.953125 L 273.894531 333.453125 L 271.738281 331.8125 L 269.691406 330.039063 L 267.757813 328.136719 L 265.953125 326.117188 L 264.277344 323.988281 L 262.742188 321.753906 L 261.347656 319.429688 L 260.105469 317.019531 L 259.019531 314.539063 L 258.09375 311.992188 L 257.328125 309.390625 L 256.734375 306.75 L 256.304688 304.074219 L 256.046875 301.375 L 255.960938 298.667969 "/>
<path style="fill:none;stroke-width:0.75;stroke-linecap:round;stroke-linejoin:round;stroke:rgb(0%,0%,0%);stroke-opacity:1;stroke-miterlimit:10;" d="M 390.601563 296.242188 L 348.601563 296.242188 L 348.609375 295.351563 L 348.636719 294.464844 L 348.683594 293.578125 L 348.75 292.691406 L 348.835938 291.808594 L 348.9375 290.925781 L 349.058594 290.042969 L 349.199219 289.167969 L 349.359375 288.292969 L 349.535156 287.421875 L 349.730469 286.554688 L 349.945313 285.695313 L 350.179688 284.835938 L 350.429688 283.984375 L 350.695313 283.136719 L 350.984375 282.296875 L 351.285156 281.460938 L 351.609375 280.632813 L 351.949219 279.8125 L 352.304688 278.996094 L 352.675781 278.191406 L 353.066406 277.390625 L 353.472656 276.601563 L 353.898438 275.820313 L 354.339844 275.050781 L 354.792969 274.289063 L 355.265625 273.535156 L 355.753906 272.792969 L 356.257813 272.0625 L 356.777344 271.339844 L 357.3125 270.628906 L 357.863281 269.929688 L 358.425781 269.246094 L 359.003906 268.570313 L 359.597656 267.90625 L 360.203125 267.257813 L 360.824219 266.621094 L 361.457031 266 L 362.101563 265.390625 L 362.761719 264.792969 L 363.433594 264.210938 L 364.117188 263.644531 L 364.8125 263.089844 L 365.519531 262.550781 L 366.238281 262.03125 L 366.964844 261.523438 L 367.707031 261.03125 L 368.457031 260.554688 L 369.214844 260.09375 L 369.984375 259.648438 L 370.765625 259.222656 L 371.550781 258.808594 L 372.347656 258.414063 L 373.152344 258.039063 L 373.964844 257.675781 L 374.785156 257.332031 L 375.609375 257.007813 L 376.445313 256.699219 L 377.285156 256.410156 L 378.128906 256.136719 L 378.980469 255.882813 L 379.835938 255.644531 L 380.699219 255.425781 L 381.5625 255.226563 L 382.433594 255.042969 L 383.308594 254.878906 L 384.183594 254.734375 L 385.0625 254.609375 L 385.945313 254.5 L 386.828125 254.410156 L 387.714844 254.339844 L 388.601563 254.289063 L 389.488281 254.257813 L 390.378906 254.242188 L 391.265625 254.246094 L 392.15625 254.269531 L 393.042969 254.3125 L 393.929688 254.375 L 394.8125 254.453125 L 395.695313 254.550781 L 396.578125 254.667969 L 397.457031 254.804688 L 398.332031 254.960938 L 399.203125 255.132813 L 400.070313 255.324219 L 400.933594 255.53125 L 401.792969 255.761719 L 402.644531 256.007813 L 403.496094 256.269531 L 404.335938 256.550781 L 405.171875 256.851563 L 406.003906 257.167969 L 406.828125 257.503906 L 407.640625 257.855469 L 408.449219 258.222656 L 409.25 258.609375 L 410.042969 259.011719 L 410.824219 259.433594 L 411.601563 259.867188 L 390.601563 296.242188 "/>
<path style="fill:none;stroke-width:0.75;stroke-linecap:round;stroke-linejoin:round;stroke:rgb(0%,0%,0%);stroke-opacity:1;stroke-miterlimit:10;" d="M 394.800781 298.667969 L 415.800781 262.292969 L 416.566406 262.746094 L 417.320313 263.214844 L 418.066406 263.699219 L 418.800781 264.199219 L 419.523438 264.714844 L 420.234375 265.246094 L 420.9375 265.789063 L 421.625 266.351563 L 422.304688 266.925781 L 422.96875 267.515625 L 423.621094 268.117188 L 424.261719 268.734375 L 424.886719 269.363281 L 425.5 270.007813 L 426.101563 270.664063 L 426.6875 271.332031 L 427.257813 272.011719 L 427.8125 272.703125 L 428.355469 273.40625 L 428.882813 274.125 L 429.394531 274.851563 L 429.890625 275.585938 L 430.371094 276.335938 L 430.835938 277.09375 L 431.285156 277.859375 L 431.714844 278.636719 L 432.132813 279.421875 L 432.53125 280.214844 L 432.910156 281.015625 L 433.277344 281.828125 L 433.625 282.644531 L 433.953125 283.46875 L 434.265625 284.300781 L 434.5625 285.140625 L 434.839844 285.984375 L 435.097656 286.832031 L 435.339844 287.6875 L 435.5625 288.550781 L 435.769531 289.414063 L 435.953125 290.28125 L 436.121094 291.15625 L 436.273438 292.03125 L 436.402344 292.910156 L 436.515625 293.789063 L 436.609375 294.675781 L 436.683594 295.558594 L 436.742188 296.445313 L 436.777344 297.335938 L 436.796875 298.222656 L 436.796875 299.109375 L 436.777344 300 L 436.742188 300.886719 L 436.683594 301.773438 L 436.609375 302.660156 L 436.515625 303.542969 L 436.402344 304.425781 L 436.273438 305.300781 L 436.121094 306.179688 L 435.953125 307.050781 L 435.769531 307.917969 L 435.5625 308.785156 L 435.339844 309.644531 L 435.097656 310.5 L 434.839844 311.347656 L 434.5625 312.195313 L 434.265625 313.03125 L 433.953125 313.863281 L 433.625 314.6875 L 433.277344 315.503906 L 432.910156 316.316406 L 432.53125 317.117188 L 432.132813 317.914063 L 431.714844 318.699219 L 431.285156 319.472656 L 430.835938 320.242188 L 430.371094 321 L 429.890625 321.746094 L 429.394531 322.484375 L 428.882813 323.210938 L 428.355469 323.925781 L 427.8125 324.628906 L 427.257813 325.320313 L 426.6875 326.003906 L 426.101563 326.671875 L 425.5 327.328125 L 424.886719 327.96875 L 424.261719 328.601563 L 423.621094 329.214844 L 422.96875 329.820313 L 422.304688 330.40625 L 421.625 330.984375 L 420.9375 331.542969 L 420.234375 332.089844 L 419.523438 332.621094 L 418.800781 333.132813 L 418.066406 333.632813 L 417.320313 334.117188 L 416.566406 334.585938 L 415.800781 335.039063 L 394.800781 298.667969 "/>
<path style="fill:none;stroke-width:0.75;stroke-linecap:round;stroke-linejoin:round;stroke:rgb(0%,0%,0%);stroke-opacity:1;stroke-miterlimit:10;" d="M 390.601563 301.089844 L 411.601563 337.464844 L 410.824219 337.902344 L 410.042969 338.320313 L 409.25 338.722656 L 408.449219 339.109375 L 407.640625 339.476563 L 406.828125 339.832031 L 406.003906 340.164063 L 405.171875 340.480469 L 404.335938 340.78125 L 403.496094 341.0625 L 402.644531 341.328125 L 401.792969 341.574219 L 400.933594 341.800781 L 400.070313 342.011719 L 399.203125 342.203125 L 398.332031 342.375 L 397.457031 342.527344 L 396.578125 342.664063 L 395.695313 342.78125 L 394.8125 342.878906 L 393.929688 342.960938 L 393.042969 343.019531 L 392.15625 343.0625 L 391.265625 343.085938 L 390.378906 343.089844 L 389.488281 343.078125 L 388.601563 343.042969 L 387.714844 342.992188 L 386.828125 342.921875 L 385.945313 342.832031 L 385.0625 342.726563 L 384.183594 342.597656 L 383.308594 342.453125 L 382.433594 342.289063 L 381.5625 342.109375 L 380.699219 341.90625 L 379.835938 341.6875 L 378.980469 341.453125 L 378.128906 341.199219 L 377.285156 340.925781 L 376.445313 340.632813 L 375.609375 340.324219 L 374.785156 340 L 373.964844 339.65625 L 373.152344 339.296875 L 372.347656 338.917969 L 371.550781 338.523438 L 370.765625 338.113281 L 369.984375 337.683594 L 369.214844 337.242188 L 368.457031 336.78125 L 367.707031 336.304688 L 366.964844 335.8125 L 366.238281 335.304688 L 365.519531 334.78125 L 364.8125 334.242188 L 364.117188 333.691406 L 363.433594 333.121094 L 362.761719 332.539063 L 362.101563 331.945313 L 361.457031 331.335938 L 360.824219 330.710938 L 360.203125 330.074219 L 359.597656 329.425781 L 359.003906 328.761719 L 358.425781 328.089844 L 357.863281 327.402344 L 357.3125 326.703125 L 356.777344 325.992188 L 356.257813 325.273438 L 355.753906 324.539063 L 355.265625 323.796875 L 354.792969 323.046875 L 354.339844 322.285156 L 353.898438 321.511719 L 353.472656 320.730469 L 353.066406 319.941406 L 352.675781 319.144531 L 352.304688 318.335938 L 351.949219 317.523438 L 351.609375 316.703125 L 351.285156 315.871094 L 350.984375 315.039063 L 350.695313 314.195313 L 350.429688 313.351563 L 350.179688 312.496094 L 349.945313 311.640625 L 349.730469 310.777344 L 349.535156 309.910156 L 349.359375 309.039063 L 349.199219 308.164063 L 349.058594 307.289063 L 348.9375 306.410156 L 348.835938 305.527344 L 348.75 304.640625 L 348.683594 303.753906 L 348.636719 302.867188 L 348.609375 301.980469 L 348.601563 301.089844 L 390.601563 301.089844 "/>
<path style="fill:none;stroke-width:0.75;stroke-linecap:round;stroke-linejoin:round;stroke:rgb(0%,0%,0%);stroke-opacity:1;stroke-miterlimit:10;" d="M 205.332031 389.199219 L 163.332031 389.199219 L 163.355469 387.867188 L 163.417969 386.535156 L 163.523438 385.207031 L 163.671875 383.882813 L 163.859375 382.5625 L 164.09375 381.25 L 164.367188 379.945313 L 164.679688 378.652344 L 165.035156 377.367188 L 165.429688 376.09375 L 165.867188 374.835938 L 166.34375 373.589844 L 166.855469 372.359375 L 167.410156 371.148438 L 168.003906 369.953125 L 168.632813 368.78125 L 169.296875 367.625 L 170 366.492188 L 170.738281 365.382813 L 171.511719 364.296875 L 172.320313 363.238281 L 173.160156 362.203125 L 174.03125 361.195313 L 174.9375 360.214844 L 175.871094 359.265625 L 176.835938 358.347656 L 177.828125 357.457031 L 178.851563 356.601563 L 179.898438 355.777344 L 180.972656 354.988281 L 182.070313 354.230469 L 183.191406 353.511719 L 184.332031 352.828125 L 185.496094 352.179688 L 186.683594 351.566406 L 187.886719 350.996094 L 189.105469 350.460938 L 190.34375 349.964844 L 191.597656 349.511719 L 192.863281 349.09375 L 194.140625 348.71875 L 195.429688 348.382813 L 196.730469 348.089844 L 198.039063 347.839844 L 199.355469 347.628906 L 200.679688 347.457031 L 202.003906 347.332031 L 203.335938 347.246094 L 204.667969 347.207031 L 206 347.207031 L 207.332031 347.246094 L 208.660156 347.332031 L 209.988281 347.457031 L 211.3125 347.628906 L 212.625 347.839844 L 213.933594 348.089844 L 215.234375 348.382813 L 216.523438 348.71875 L 217.804688 349.09375 L 219.070313 349.511719 L 220.324219 349.964844 L 221.558594 350.460938 L 222.78125 350.996094 L 223.984375 351.566406 L 225.167969 352.179688 L 226.332031 352.828125 L 227.476563 353.511719 L 228.597656 354.230469 L 229.695313 354.988281 L 230.769531 355.777344 L 231.816406 356.601563 L 232.835938 357.457031 L 233.832031 358.347656 L 234.796875 359.265625 L 235.730469 360.214844 L 236.632813 361.195313 L 237.507813 362.203125 L 238.347656 363.238281 L 239.15625 364.296875 L 239.929688 365.382813 L 240.664063 366.492188 L 241.367188 367.625 L 242.035156 368.78125 L 242.664063 369.953125 L 243.257813 371.148438 L 243.808594 372.359375 L 244.324219 373.589844 L 244.800781 374.835938 L 245.234375 376.09375 L 245.632813 377.367188 L 245.988281 378.652344 L 246.300781 379.945313 L 246.574219 381.25 L 246.804688 382.5625 L 246.996094 383.882813 L 247.144531 385.207031 L 247.25 386.535156 L 247.3125 387.867188 L 247.332031 389.199219 L 205.332031 389.199219 "/>
<path style="fill:none;stroke-width:0.75;stroke-linecap:round;stroke-linejoin:round;stroke:rgb(0%,0%,0%);stroke-opacity:1;stroke-miterlimit:10;" d="M 205.332031 394.800781 L 247.332031 394.800781 L 247.3125 396.132813 L 247.25 397.464844 L 247.144531 398.792969 L 246.996094 400.117188 L 246.804688 401.4375 L 246.574219 402.75 L 246.300781 404.054688 L 245.988281 405.347656 L 245.632813 406.632813 L 245.234375 407.90625 L 244.800781 409.164063 L 244.324219 410.410156 L 243.808594 411.640625 L 243.257813 412.851563 L 242.664063 414.046875 L 242.035156 415.21875 L 241.367188 416.375 L 240.664063 417.507813 L 239.929688 418.617188 L 239.15625 419.703125 L 238.347656 420.761719 L 237.507813 421.796875 L 236.632813 422.804688 L 235.730469 423.785156 L 234.796875 424.734375 L 233.832031 425.652344 L 232.835938 426.542969 L 231.816406 427.398438 L 230.769531 428.222656 L 229.695313 429.011719 L 228.597656 429.769531 L 227.476563 430.488281 L 226.332031 431.171875 L 225.167969 431.820313 L 223.984375 432.433594 L 222.78125 433.003906 L 221.558594 433.539063 L 220.324219 434.035156 L 219.070313 434.488281 L 217.804688 434.90625 L 216.523438 435.28125 L 215.234375 435.617188 L 213.933594 435.910156 L 212.625 436.160156 L 211.3125 436.371094 L 209.988281 436.542969 L 208.660156 436.667969 L 207.332031 436.753906 L 206 436.792969 L 204.667969 436.792969 L 203.335938 436.753906 L 202.003906 436.667969 L 200.679688 436.542969 L 199.355469 436.371094 L 198.039063 436.160156 L 196.730469 435.910156 L 195.429688 435.617188 L 194.140625 435.28125 L 192.863281 434.90625 L 191.597656 434.488281 L 190.34375 434.035156 L 189.105469 433.539063 L 187.886719 433.003906 L 186.683594 432.433594 L 185.496094 431.820313 L 184.332031 431.171875 L 183.191406 430.488281 L 182.070313 429.769531 L 180.972656 429.011719 L 179.898438 428.222656 L 178.851563 427.398438 L 177.828125 426.542969 L 176.835938 425.652344 L 175.871094 424.734375 L 174.9375 423.785156 L 174.03125 422.804688 L 173.160156 421.796875 L 172.320313 420.761719 L 171.511719 419.703125 L 170.738281 418.617188 L 170 417.507813 L 169.296875 416.375 L 168.632813 415.21875 L 168.003906 414.046875 L 167.410156 412.851563 L 166.855469 411.640625 L 166.34375 410.410156 L 165.867188 409.164063 L 165.429688 407.90625 L 165.035156 406.632813 L 164.679688 405.347656 L 164.367188 404.054688 L 164.09375 402.75 L 163.859375 401.4375 L 163.671875 400.117188 L 163.523438 398.792969 L 163.417969 397.464844 L 163.355469 396.132813 L 163.332031 394.800781 L 205.332031 394.800781 "/>
<path style="fill:none;stroke-width:0.75;stroke-linecap:round;stroke-linejoin:round;stroke:rgb(0%,0%,0%);stroke-opacity:1;stroke-miterlimit:10;" d="M 298.667969 389.199219 L 256.667969 389.199219 L 256.6875 387.867188 L 256.75 386.535156 L 256.855469 385.207031 L 257.003906 383.882813 L 257.195313 382.5625 L 257.425781 381.25 L 257.699219 379.945313 L 258.011719 378.652344 L 258.367188 377.367188 L 258.765625 376.09375 L 259.199219 374.835938 L 259.675781 373.589844 L 260.191406 372.359375 L 260.742188 371.148438 L 261.335938 369.953125 L 261.964844 368.78125 L 262.632813 367.625 L 263.335938 366.492188 L 264.070313 365.382813 L 264.84375 364.296875 L 265.652344 363.238281 L 266.492188 362.203125 L 267.367188 361.195313 L 268.269531 360.214844 L 269.203125 359.265625 L 270.167969 358.347656 L 271.164063 357.457031 L 272.183594 356.601563 L 273.230469 355.777344 L 274.304688 354.988281 L 275.402344 354.230469 L 276.523438 353.511719 L 277.667969 352.828125 L 278.832031 352.179688 L 280.015625 351.566406 L 281.21875 350.996094 L 282.441406 350.460938 L 283.675781 349.964844 L 284.929688 349.511719 L 286.195313 349.09375 L 287.476563 348.71875 L 288.765625 348.382813 L 290.066406 348.089844 L 291.375 347.839844 L 292.6875 347.628906 L 294.011719 347.457031 L 295.339844 347.332031 L 296.667969 347.246094 L 298 347.207031 L 299.332031 347.207031 L 300.664063 347.246094 L 301.996094 347.332031 L 303.320313 347.457031 L 304.644531 347.628906 L 305.960938 347.839844 L 307.269531 348.089844 L 308.570313 348.382813 L 309.859375 348.71875 L 311.136719 349.09375 L 312.402344 349.511719 L 313.65625 349.964844 L 314.894531 350.460938 L 316.113281 350.996094 L 317.316406 351.566406 L 318.503906 352.179688 L 319.667969 352.828125 L 320.808594 353.511719 L 321.929688 354.230469 L 323.027344 354.988281 L 324.101563 355.777344 L 325.148438 356.601563 L 326.171875 357.457031 L 327.164063 358.347656 L 328.128906 359.265625 L 329.0625 360.214844 L 329.96875 361.195313 L 330.839844 362.203125 L 331.679688 363.238281 L 332.488281 364.296875 L 333.261719 365.382813 L 334 366.492188 L 334.703125 367.625 L 335.367188 368.78125 L 335.996094 369.953125 L 336.589844 371.148438 L 337.144531 372.359375 L 337.65625 373.589844 L 338.132813 374.835938 L 338.570313 376.09375 L 338.964844 377.367188 L 339.320313 378.652344 L 339.632813 379.945313 L 339.90625 381.25 L 340.140625 382.5625 L 340.328125 383.882813 L 340.476563 385.207031 L 340.582031 386.535156 L 340.644531 387.867188 L 340.667969 389.199219 L 298.667969 389.199219 "/>
<path style="fill:none;stroke-width:0.75;stroke-linecap:round;stroke-linejoin:round;stroke:rgb(0%,0%,0%);stroke-opacity:1;stroke-miterlimit:10;" d="M 298.667969 394.800781 L 340.667969 394.800781 L 340.644531 396.132813 L 340.582031 397.464844 L 340.476563 398.792969 L 340.328125 400.117188 L 340.140625 401.4375 L 339.90625 402.75 L 339.632813 404.054688 L 339.320313 405.347656 L 338.964844 406.632813 L 338.570313 407.90625 L 338.132813 409.164063 L 337.65625 410.410156 L 337.144531 411.640625 L 336.589844 412.851563 L 335.996094 414.046875 L 335.367188 415.21875 L 334.703125 416.375 L 334 417.507813 L 333.261719 418.617188 L 332.488281 419.703125 L 331.679688 420.761719 L 330.839844 421.796875 L 329.96875 422.804688 L 329.0625 423.785156 L 328.128906 424.734375 L 327.164063 425.652344 L 326.171875 426.542969 L 325.148438 427.398438 L 324.101563 428.222656 L 323.027344 429.011719 L 321.929688 429.769531 L 320.808594 430.488281 L 319.667969 431.171875 L 318.503906 431.820313 L 317.316406 432.433594 L 316.113281 433.003906 L 314.894531 433.539063 L 313.65625 434.035156 L 312.402344 434.488281 L 311.136719 434.90625 L 309.859375 435.28125 L 308.570313 435.617188 L 307.269531 435.910156 L 305.960938 436.160156 L 304.644531 436.371094 L 303.320313 436.542969 L 301.996094 436.667969 L 300.664063 436.753906 L 299.332031 436.792969 L 298 436.792969 L 296.667969 436.753906 L 295.339844 436.667969 L 294.011719 436.542969 L 292.6875 436.371094 L 291.375 436.160156 L 290.066406 435.910156 L 288.765625 435.617188 L 287.476563 435.28125 L 286.195313 434.90625 L 284.929688 434.488281 L 283.675781 434.035156 L 282.441406 433.539063 L 281.21875 433.003906 L 280.015625 432.433594 L 278.832031 431.820313 L 277.667969 431.171875 L 276.523438 430.488281 L 275.402344 429.769531 L 274.304688 429.011719 L 273.230469 428.222656 L 272.183594 427.398438 L 271.164063 426.542969 L 270.167969 425.652344 L 269.203125 424.734375 L 268.269531 423.785156 L 267.367188 422.804688 L 266.492188 421.796875 L 265.652344 420.761719 L 264.84375 419.703125 L 264.070313 418.617188 L 263.335938 417.507813 L 262.632813 416.375 L 261.964844 415.21875 L 261.335938 414.046875 L 260.742188 412.851563 L 260.191406 411.640625 L 259.675781 410.410156 L 259.199219 409.164063 L 258.765625 407.90625 L 258.367188 406.632813 L 258.011719 405.347656 L 257.699219 404.054688 L 257.425781 402.75 L 257.195313 401.4375 L 257.003906 400.117188 L 256.855469 398.792969 L 256.75 397.464844 L 256.6875 396.132813 L 256.667969 394.800781 L 298.667969 394.800781 "/>
<path style="fill:none;stroke-width:0.75;stroke-linecap:round;stroke-linejoin:round;stroke:rgb(0%,0%,0%);stroke-opacity:1;stroke-miterlimit:10;" d="M 390.019531 390.019531 L 348.019531 390.019531 L 348.023438 389.355469 L 348.042969 388.6875 L 348.066406 388.023438 L 348.105469 387.355469 L 348.152344 386.691406 L 348.210938 386.027344 L 348.277344 385.363281 L 348.359375 384.703125 L 348.449219 384.042969 L 348.546875 383.382813 L 348.65625 382.726563 L 348.777344 382.070313 L 348.910156 381.417969 L 349.050781 380.765625 L 349.203125 380.117188 L 349.367188 379.472656 L 349.539063 378.828125 L 349.722656 378.1875 L 349.914063 377.550781 L 350.117188 376.914063 L 350.328125 376.285156 L 350.554688 375.65625 L 350.785156 375.03125 L 351.027344 374.410156 L 351.28125 373.792969 L 351.542969 373.179688 L 351.816406 372.574219 L 352.097656 371.96875 L 352.386719 371.371094 L 352.6875 370.773438 L 353 370.183594 L 353.320313 369.601563 L 353.648438 369.019531 L 353.984375 368.445313 L 354.332031 367.875 L 354.6875 367.3125 L 355.050781 366.753906 L 355.425781 366.203125 L 355.808594 365.65625 L 356.199219 365.117188 L 356.597656 364.585938 L 357.007813 364.058594 L 357.421875 363.535156 L 357.847656 363.023438 L 358.277344 362.515625 L 358.71875 362.015625 L 359.167969 361.523438 L 359.625 361.035156 L 360.085938 360.558594 L 360.558594 360.085938 L 361.035156 359.625 L 361.523438 359.167969 L 362.015625 358.71875 L 362.515625 358.277344 L 363.023438 357.847656 L 363.535156 357.421875 L 364.058594 357.007813 L 364.585938 356.597656 L 365.117188 356.199219 L 365.65625 355.808594 L 366.203125 355.425781 L 366.753906 355.050781 L 367.3125 354.6875 L 367.875 354.332031 L 368.445313 353.984375 L 369.019531 353.648438 L 369.601563 353.320313 L 370.183594 353 L 370.773438 352.6875 L 371.371094 352.386719 L 371.96875 352.097656 L 372.574219 351.816406 L 373.179688 351.542969 L 373.792969 351.28125 L 374.410156 351.027344 L 375.03125 350.785156 L 375.65625 350.554688 L 376.285156 350.328125 L 376.914063 350.117188 L 377.550781 349.914063 L 378.1875 349.722656 L 378.828125 349.539063 L 379.472656 349.367188 L 380.117188 349.203125 L 380.765625 349.050781 L 381.417969 348.910156 L 382.070313 348.777344 L 382.726563 348.65625 L 383.382813 348.546875 L 384.042969 348.449219 L 384.703125 348.359375 L 385.363281 348.277344 L 386.027344 348.210938 L 386.691406 348.152344 L 387.355469 348.105469 L 388.023438 348.066406 L 388.6875 348.042969 L 389.355469 348.023438 L 390.019531 348.019531 L 390.019531 390.019531 "/>
<path style="fill:none;stroke-width:0.75;stroke-linecap:round;stroke-linejoin:round;stroke:rgb(0%,0%,0%);stroke-opacity:1;stroke-miterlimit:10;" d="M 393.980469 390.019531 L 393.980469 348.019531 L 394.644531 348.023438 L 395.3125 348.042969 L 395.976563 348.066406 L 396.644531 348.105469 L 397.308594 348.152344 L 397.972656 348.210938 L 398.636719 348.277344 L 399.296875 348.359375 L 399.957031 348.449219 L 400.617188 348.546875 L 401.273438 348.65625 L 401.929688 348.777344 L 402.582031 348.910156 L 403.234375 349.050781 L 403.882813 349.203125 L 404.527344 349.367188 L 405.171875 349.539063 L 405.8125 349.722656 L 406.449219 349.914063 L 407.085938 350.117188 L 407.714844 350.328125 L 408.34375 350.554688 L 408.96875 350.785156 L 409.589844 351.027344 L 410.207031 351.28125 L 410.820313 351.542969 L 411.425781 351.816406 L 412.03125 352.097656 L 412.628906 352.386719 L 413.226563 352.6875 L 413.816406 353 L 414.398438 353.320313 L 414.980469 353.648438 L 415.554688 353.984375 L 416.125 354.332031 L 416.6875 354.6875 L 417.246094 355.050781 L 417.796875 355.425781 L 418.34375 355.808594 L 418.882813 356.199219 L 419.414063 356.597656 L 419.941406 357.007813 L 420.464844 357.421875 L 420.976563 357.847656 L 421.484375 358.277344 L 421.984375 358.71875 L 422.476563 359.167969 L 422.964844 359.625 L 423.441406 360.085938 L 423.914063 360.558594 L 424.375 361.035156 L 424.832031 361.523438 L 425.28125 362.015625 L 425.722656 362.515625 L 426.152344 363.023438 L 426.578125 363.535156 L 426.992188 364.058594 L 427.402344 364.585938 L 427.800781 365.117188 L 428.191406 365.65625 L 428.574219 366.203125 L 428.949219 366.753906 L 429.3125 367.3125 L 429.667969 367.875 L 430.015625 368.445313 L 430.351563 369.019531 L 430.679688 369.601563 L 431 370.183594 L 431.3125 370.773438 L 431.613281 371.371094 L 431.902344 371.96875 L 432.183594 372.574219 L 432.457031 373.179688 L 432.71875 373.792969 L 432.972656 374.410156 L 433.214844 375.03125 L 433.445313 375.65625 L 433.671875 376.285156 L 433.882813 376.914063 L 434.085938 377.550781 L 434.277344 378.1875 L 434.460938 378.828125 L 434.632813 379.472656 L 434.796875 380.117188 L 434.949219 380.765625 L 435.089844 381.417969 L 435.222656 382.070313 L 435.34375 382.726563 L 435.453125 383.382813 L 435.550781 384.042969 L 435.640625 384.703125 L 435.722656 385.363281 L 435.789063 386.027344 L 435.847656 386.691406 L 435.894531 387.355469 L 435.933594 388.023438 L 435.957031 388.6875 L 435.976563 389.355469 L 435.980469 390.019531 L 393.980469 390.019531 "/>
<path style="fill:none;stroke-width:0.75;stroke-linecap:round;stroke-linejoin:round;stroke:rgb(0%,0%,0%);stroke-opacity:1;stroke-miterlimit:10;" d="M 393.980469 393.980469 L 435.980469 393.980469 L 435.976563 394.644531 L 435.957031 395.3125 L 435.933594 395.976563 L 435.894531 396.644531 L 435.847656 397.308594 L 435.789063 397.972656 L 435.722656 398.636719 L 435.640625 399.296875 L 435.550781 399.957031 L 435.453125 400.617188 L 435.34375 401.273438 L 435.222656 401.929688 L 435.089844 402.582031 L 434.949219 403.234375 L 434.796875 403.882813 L 434.632813 404.527344 L 434.460938 405.171875 L 434.277344 405.8125 L 434.085938 406.449219 L 433.882813 407.085938 L 433.671875 407.714844 L 433.445313 408.34375 L 433.214844 408.96875 L 432.972656 409.589844 L 432.71875 410.207031 L 432.457031 410.820313 L 432.183594 411.425781 L 431.902344 412.03125 L 431.613281 412.628906 L 431.3125 413.226563 L 431 413.816406 L 430.679688 414.398438 L 430.351563 414.980469 L 430.015625 415.554688 L 429.667969 416.125 L 429.3125 416.6875 L 428.949219 417.246094 L 428.574219 417.796875 L 428.191406 418.34375 L 427.800781 418.882813 L 427.402344 419.414063 L 426.992188 419.941406 L 426.578125 420.464844 L 426.152344 420.976563 L 425.722656 421.484375 L 425.28125 421.984375 L 424.832031 422.476563 L 424.375 422.964844 L 423.914063 423.441406 L 423.441406 423.914063 L 422.964844 424.375 L 422.476563 424.832031 L 421.984375 425.28125 L 421.484375 425.722656 L 420.976563 426.152344 L 420.464844 426.578125 L 419.941406 426.992188 L 419.414063 427.402344 L 418.882813 427.800781 L 418.34375 428.191406 L 417.796875 428.574219 L 417.246094 428.949219 L 416.6875 429.3125 L 416.125 429.667969 L 415.554688 430.015625 L 414.980469 430.351563 L 414.398438 430.679688 L 413.816406 431 L 413.226563 431.3125 L 412.628906 431.613281 L 412.03125 431.902344 L 411.425781 432.183594 L 410.820313 432.457031 L 410.207031 432.71875 L 409.589844 432.972656 L 408.96875 433.214844 L 408.34375 433.445313 L 407.714844 433.671875 L 407.085938 433.882813 L 406.449219 434.085938 L 405.8125 434.277344 L 405.171875 434.460938 L 404.527344 434.632813 L 403.882813 434.796875 L 403.234375 434.949219 L 402.582031 435.089844 L 401.929688 435.222656 L 401.273438 435.34375 L 400.617188 435.453125 L 399.957031 435.550781 L 399.296875 435.640625 L 398.636719 435.722656 L 397.972656 435.789063 L 397.308594 435.847656 L 396.644531 435.894531 L 395.976563 435.933594 L 395.3125 435.957031 L 394.644531 435.976563 L 393.980469 435.980469 L 393.980469 393.980469 "/>
<path style="fill:none;stroke-width:0.75;stroke-linecap:round;stroke-linejoin:round;stroke:rgb(0%,0%,0%);stroke-opacity:1;stroke-miterlimit:10;" d="M 390.019531 393.980469 L 390.019531 435.980469 L 389.355469 435.976563 L 388.6875 435.957031 L 388.023438 435.933594 L 387.355469 435.894531 L 386.691406 435.847656 L 386.027344 435.789063 L 385.363281 435.722656 L 384.703125 435.640625 L 384.042969 435.550781 L 383.382813 435.453125 L 382.726563 435.34375 L 382.070313 435.222656 L 381.417969 435.089844 L 380.765625 434.949219 L 380.117188 434.796875 L 379.472656 434.632813 L 378.828125 434.460938 L 378.1875 434.277344 L 377.550781 434.085938 L 376.914063 433.882813 L 376.285156 433.671875 L 375.65625 433.445313 L 375.03125 433.214844 L 374.410156 432.972656 L 373.792969 432.71875 L 373.179688 432.457031 L 372.574219 432.183594 L 371.96875 431.902344 L 371.371094 431.613281 L 370.773438 431.3125 L 370.183594 431 L 369.601563 430.679688 L 369.019531 430.351563 L 368.445313 430.015625 L 367.875 429.667969 L 367.3125 429.3125 L 366.753906 428.949219 L 366.203125 428.574219 L 365.65625 428.191406 L 365.117188 427.800781 L 364.585938 427.402344 L 364.058594 426.992188 L 363.535156 426.578125 L 363.023438 426.152344 L 362.515625 425.722656 L 362.015625 425.28125 L 361.523438 424.832031 L 361.035156 424.375 L 360.558594 423.914063 L 360.085938 423.441406 L 359.625 422.964844 L 359.167969 422.476563 L 358.71875 421.984375 L 358.277344 421.484375 L 357.847656 420.976563 L 357.421875 420.464844 L 357.007813 419.941406 L 356.597656 419.414063 L 356.199219 418.882813 L 355.808594 418.34375 L 355.425781 417.796875 L 355.050781 417.246094 L 354.6875 416.6875 L 354.332031 416.125 L 353.984375 415.554688 L 353.648438 414.980469 L 353.320313 414.398438 L 353 413.816406 L 352.6875 413.226563 L 352.386719 412.628906 L 352.097656 412.03125 L 351.816406 411.425781 L 351.542969 410.820313 L 351.28125 410.207031 L 351.027344 409.589844 L 350.785156 408.96875 L 350.554688 408.34375 L 350.328125 407.714844 L 350.117188 407.085938 L 349.914063 406.449219 L 349.722656 405.8125 L 349.539063 405.171875 L 349.367188 404.527344 L 349.203125 403.882813 L 349.050781 403.234375 L 348.910156 402.582031 L 348.777344 401.929688 L 348.65625 401.273438 L 348.546875 400.617188 L 348.449219 399.957031 L 348.359375 399.296875 L 348.277344 398.636719 L 348.210938 397.972656 L 348.152344 397.308594 L 348.105469 396.644531 L 348.066406 395.976563 L 348.042969 395.3125 L 348.023438 394.644531 L 348.019531 393.980469 L 390.019531 393.980469 "/>
</g>
</svg>
