<?xml version="1.0" encoding="UTF-8"?>
<svg xmlns="http://www.w3.org/2000/svg" xmlns:xlink="http://www.w3.org/1999/xlink" width="648pt" height="864pt" viewBox="0 0 648 864" version="1.1">
<g id="surface94">
<rect x="0" y="0" width="648" height="864" style="fill:rgb(100%,100%,100%);fill-opacity:1;stroke:none;"/>
<path style="fill:none;stroke-width:0.75;stroke-linecap:round;stroke-linejoin:round;stroke:rgb(0%,0%,0%);stroke-opacity:1;stroke-miterlimit:10;" d="M 214.566406 146.285156 L 214.667969 142.96875 L 214.984375 139.664063 L 215.507813 136.390625 L 216.242188 133.152344 L 217.175781 129.96875 L 218.308594 126.851563 L 219.640625 123.8125 L 221.160156 120.859375 L 222.867188 118.015625 L 224.746094 115.28125 L 226.796875 112.671875 L 229.011719 110.199219 L 231.375 107.871094 L 233.882813 105.699219 L 236.523438 103.6875 L 239.289063 101.851563 L 242.160156 100.191406 L 245.132813 98.71875 L 248.195313 97.4375 L 251.332031 96.351563 L 254.527344 95.46875 L 257.777344 94.789063 L 261.0625 94.316406 L 264.367188 94.050781 L 267.6875 94 L 271 94.15625 L 274.300781 94.527344 L 277.566406 95.101563 L 280.792969 95.882813 L 283.960938 96.871094 L 287.058594 98.054688 L 290.078125 99.433594 L 293.003906 101 L 295.824219 102.75 L 298.527344 104.671875 L 301.101563 106.765625 L 303.539063 109.015625 L 305.828125 111.417969 L 307.960938 113.960938 L 309.929688 116.632813 L 311.722656 119.425781 L 313.335938 122.324219 L 314.761719 125.320313 L 315.996094 128.402344 L 317.03125 131.554688 L 317.863281 134.765625 L 318.492188 138.023438 L 318.914063 141.316406 L 319.125 144.625 L 319.125 147.945313 L 318.914063 151.257813 L 318.492188 154.546875 L 317.863281 157.804688 L 317.03125 161.019531 L 315.996094 164.171875 L 314.761719 167.25 L 313.335938 170.246094 L 311.722656 173.148438 L 309.929688 175.9375 L 307.960938 178.609375 L 305.828125 181.152344 L 303.539063 183.554688 L 301.101563 185.804688 L 298.527344 187.898438 L 295.824219 189.824219 L 293.003906 191.574219 L 290.078125 193.140625 L 287.058594 194.519531 L 283.960938 195.703125 L 280.792969 196.6875 L 277.566406 197.46875 L 274.300781 198.046875 L 271 198.414063 L 267.6875 198.570313 L 264.367188 198.519531 L 261.0625 198.257813 L 257.777344 197.785156 L 254.527344 197.105469 L 251.332031 196.21875 L 248.195313 195.132813 L 245.132813 193.851563 L 242.160156 192.378906 L 239.289063 190.71875 L 236.523438 188.882813 L 233.882813 186.871094 L 231.375 184.699219 L 229.011719 182.371094 L 226.796875 179.898438 L 224.746094 177.289063 L 222.867188 174.558594 L 221.160156 171.710938 L 219.640625 168.761719 L 218.308594 165.722656 L 217.175781 162.601563 L 216.242188 159.417969 L 215.507813 156.183594 L 214.984375 152.90625 L 214.667969 149.601563 L 214.566406 146.285156 "/>
<path style="fill:none;stroke-width:0.75;stroke-linecap:round;stroke-linejoin:round;stroke:rgb(0%,0%,0%);stroke-opacity:1;stroke-miterlimit:10;" d="M 495.429688 142.855469 L 444 142.855469 L 444.027344 141.226563 L 444.105469 139.59375 L 444.234375 137.96875 L 444.414063 136.347656 L 444.644531 134.730469 L 444.929688 133.125 L 445.261719 131.527344 L 445.648438 129.941406 L 446.082031 128.367188 L 446.566406 126.808594 L 447.101563 125.265625 L 447.683594 123.742188 L 448.3125 122.238281 L 448.992188 120.753906 L 449.71875 119.292969 L 450.488281 117.851563 L 451.304688 116.4375 L 452.164063 115.054688 L 453.066406 113.695313 L 454.015625 112.363281 L 455.003906 111.066406 L 456.03125 109.800781 L 457.101563 108.566406 L 458.207031 107.367188 L 459.351563 106.203125 L 460.535156 105.078125 L 461.75 103.988281 L 463 102.941406 L 464.28125 101.933594 L 465.597656 100.964844 L 466.941406 100.039063 L 468.3125 99.15625 L 469.714844 98.320313 L 471.140625 97.523438 L 472.589844 96.777344 L 474.0625 96.074219 L 475.558594 95.421875 L 477.074219 94.816406 L 478.609375 94.257813 L 480.160156 93.746094 L 481.722656 93.289063 L 483.304688 92.878906 L 484.894531 92.519531 L 486.5 92.210938 L 488.109375 91.953125 L 489.726563 91.746094 L 491.351563 91.589844 L 492.980469 91.488281 L 494.613281 91.433594 L 496.246094 91.433594 L 497.875 91.488281 L 499.503906 91.589844 L 501.128906 91.746094 L 502.746094 91.953125 L 504.359375 92.210938 L 505.960938 92.519531 L 507.554688 92.878906 L 509.132813 93.289063 L 510.699219 93.746094 L 512.25 94.257813 L 513.78125 94.816406 L 515.296875 95.421875 L 516.792969 96.074219 L 518.265625 96.777344 L 519.71875 97.523438 L 521.144531 98.320313 L 522.542969 99.15625 L 523.914063 100.039063 L 525.261719 100.964844 L 526.574219 101.933594 L 527.855469 102.941406 L 529.105469 103.988281 L 530.324219 105.078125 L 531.503906 106.203125 L 532.648438 107.367188 L 533.757813 108.566406 L 534.824219 109.800781 L 535.855469 111.066406 L 536.84375 112.363281 L 537.789063 113.695313 L 538.691406 115.054688 L 539.554688 116.4375 L 540.371094 117.851563 L 541.140625 119.292969 L 541.863281 120.753906 L 542.542969 122.238281 L 543.171875 123.742188 L 543.753906 125.265625 L 544.289063 126.808594 L 544.773438 128.367188 L 545.207031 129.941406 L 545.59375 131.527344 L 545.929688 133.125 L 546.210938 134.730469 L 546.445313 136.347656 L 546.625 137.96875 L 546.753906 139.59375 L 546.832031 141.226563 L 546.855469 142.855469 L 495.429688 142.855469 "/>
<path style="fill:none;stroke-width:0.75;stroke-linecap:round;stroke-linejoin:round;stroke:rgb(0%,0%,0%);stroke-opacity:1;stroke-miterlimit:10;" d="M 495.429688 149.714844 L 546.855469 149.714844 L 546.832031 151.347656 L 546.753906 152.976563 L 546.625 154.601563 L 546.445313 156.226563 L 546.210938 157.839844 L 545.929688 159.445313 L 545.59375 161.042969 L 545.207031 162.628906 L 544.773438 164.203125 L 544.289063 165.761719 L 543.753906 167.304688 L 543.171875 168.828125 L 542.542969 170.332031 L 541.863281 171.816406 L 541.140625 173.28125 L 540.371094 174.71875 L 539.554688 176.132813 L 538.691406 177.519531 L 537.789063 178.878906 L 536.84375 180.207031 L 535.855469 181.503906 L 534.824219 182.773438 L 533.757813 184.003906 L 532.648438 185.203125 L 531.503906 186.367188 L 530.324219 187.492188 L 529.105469 188.582031 L 527.855469 189.628906 L 526.574219 190.640625 L 525.261719 191.605469 L 523.914063 192.53125 L 522.542969 193.414063 L 521.144531 194.253906 L 519.71875 195.046875 L 518.265625 195.792969 L 516.792969 196.496094 L 515.296875 197.148438 L 513.78125 197.757813 L 512.25 198.3125 L 510.699219 198.824219 L 509.132813 199.285156 L 507.554688 199.691406 L 505.960938 200.050781 L 504.359375 200.363281 L 502.746094 200.621094 L 501.128906 200.824219 L 499.503906 200.980469 L 497.875 201.085938 L 496.246094 201.136719 L 494.613281 201.136719 L 492.980469 201.085938 L 491.351563 200.980469 L 489.726563 200.824219 L 488.109375 200.621094 L 486.5 200.363281 L 484.894531 200.050781 L 483.304688 199.691406 L 481.722656 199.285156 L 480.160156 198.824219 L 478.609375 198.3125 L 477.074219 197.757813 L 475.558594 197.148438 L 474.0625 196.496094 L 472.589844 195.792969 L 471.140625 195.046875 L 469.714844 194.253906 L 468.3125 193.414063 L 466.941406 192.53125 L 465.597656 191.605469 L 464.28125 190.640625 L 463 189.628906 L 461.75 188.582031 L 460.535156 187.492188 L 459.351563 186.367188 L 458.207031 185.203125 L 457.101563 184.003906 L 456.03125 182.773438 L 455.003906 181.503906 L 454.015625 180.207031 L 453.066406 178.878906 L 452.164063 177.519531 L 451.304688 176.132813 L 450.488281 174.71875 L 449.71875 173.28125 L 448.992188 171.816406 L 448.3125 170.332031 L 447.683594 168.828125 L 447.101563 167.304688 L 446.566406 165.761719 L 446.082031 164.203125 L 445.648438 162.628906 L 445.261719 161.042969 L 444.929688 159.445313 L 444.644531 157.839844 L 444.414063 156.226563 L 444.234375 154.601563 L 444.105469 152.976563 L 444.027344 151.347656 L 444 149.714844 L 495.429688 149.714844 "/>
<path style="fill:none;stroke-width:0.75;stroke-linecap:round;stroke-linejoin:round;stroke:rgb(0%,0%,0%);stroke-opacity:1;stroke-miterlimit:10;" d="M 266.855469 257.144531 L 215.429688 257.144531 L 215.453125 255.511719 L 215.53125 253.882813 L 215.660156 252.253906 L 215.84375 250.632813 L 216.074219 249.015625 L 216.359375 247.410156 L 216.691406 245.8125 L 217.078125 244.226563 L 217.511719 242.652344 L 217.996094 241.09375 L 218.53125 239.554688 L 219.113281 238.027344 L 219.742188 236.523438 L 220.421875 235.039063 L 221.144531 233.578125 L 221.917969 232.136719 L 222.730469 230.726563 L 223.59375 229.339844 L 224.496094 227.980469 L 225.441406 226.652344 L 226.429688 225.351563 L 227.460938 224.085938 L 228.527344 222.851563 L 229.636719 221.652344 L 230.78125 220.488281 L 231.960938 219.363281 L 233.179688 218.277344 L 234.429688 217.226563 L 235.710938 216.21875 L 237.027344 215.25 L 238.371094 214.324219 L 239.742188 213.441406 L 241.144531 212.605469 L 242.570313 211.8125 L 244.019531 211.0625 L 245.492188 210.363281 L 246.988281 209.707031 L 248.503906 209.101563 L 250.035156 208.542969 L 251.585938 208.035156 L 253.152344 207.574219 L 254.730469 207.164063 L 256.324219 206.804688 L 257.925781 206.496094 L 259.539063 206.238281 L 261.15625 206.03125 L 262.78125 205.875 L 264.410156 205.773438 L 266.042969 205.722656 L 267.671875 205.722656 L 269.304688 205.773438 L 270.933594 205.875 L 272.558594 206.03125 L 274.175781 206.238281 L 275.789063 206.496094 L 277.390625 206.804688 L 278.980469 207.164063 L 280.5625 207.574219 L 282.128906 208.035156 L 283.679688 208.542969 L 285.210938 209.101563 L 286.726563 209.707031 L 288.222656 210.363281 L 289.695313 211.0625 L 291.144531 211.8125 L 292.570313 212.605469 L 293.972656 213.441406 L 295.34375 214.324219 L 296.6875 215.25 L 298.003906 216.21875 L 299.285156 217.226563 L 300.535156 218.277344 L 301.75 219.363281 L 302.933594 220.488281 L 304.078125 221.652344 L 305.183594 222.851563 L 306.253906 224.085938 L 307.28125 225.351563 L 308.269531 226.652344 L 309.21875 227.980469 L 310.121094 229.339844 L 310.980469 230.726563 L 311.796875 232.136719 L 312.570313 233.578125 L 313.292969 235.039063 L 313.972656 236.523438 L 314.601563 238.027344 L 315.183594 239.554688 L 315.71875 241.09375 L 316.203125 242.652344 L 316.636719 244.226563 L 317.023438 245.8125 L 317.355469 247.410156 L 317.640625 249.015625 L 317.871094 250.632813 L 318.054688 252.253906 L 318.183594 253.882813 L 318.261719 255.511719 L 318.285156 257.144531 L 266.855469 257.144531 "/>
<path style="fill:none;stroke-width:0.75;stroke-linecap:round;stroke-linejoin:round;stroke:rgb(0%,0%,0%);stroke-opacity:1;stroke-miterlimit:10;" d="M 493.714844 257.601563 L 442.285156 257.601563 L 442.296875 256.515625 L 442.332031 255.425781 L 442.390625 254.339844 L 442.46875 253.253906 L 442.574219 252.171875 L 442.699219 251.089844 L 442.847656 250.015625 L 443.019531 248.941406 L 443.214844 247.871094 L 443.433594 246.804688 L 443.671875 245.742188 L 443.933594 244.6875 L 444.21875 243.636719 L 444.523438 242.59375 L 444.851563 241.554688 L 445.203125 240.523438 L 445.574219 239.503906 L 445.96875 238.488281 L 446.382813 237.480469 L 446.820313 236.484375 L 447.277344 235.5 L 447.757813 234.519531 L 448.253906 233.554688 L 448.773438 232.597656 L 449.3125 231.652344 L 449.871094 230.71875 L 450.449219 229.796875 L 451.046875 228.890625 L 451.664063 227.992188 L 452.300781 227.109375 L 452.953125 226.242188 L 453.628906 225.386719 L 454.316406 224.542969 L 455.027344 223.71875 L 455.75 222.90625 L 456.492188 222.113281 L 457.253906 221.332031 L 458.027344 220.570313 L 458.820313 219.824219 L 459.625 219.09375 L 460.449219 218.382813 L 461.285156 217.6875 L 462.136719 217.007813 L 463.003906 216.351563 L 463.882813 215.710938 L 464.777344 215.089844 L 465.679688 214.484375 L 466.601563 213.902344 L 467.53125 213.339844 L 468.472656 212.792969 L 469.425781 212.269531 L 470.390625 211.765625 L 471.367188 211.285156 L 472.351563 210.820313 L 473.34375 210.378906 L 474.347656 209.960938 L 475.359375 209.558594 L 476.378906 209.183594 L 477.410156 208.828125 L 478.445313 208.492188 L 479.488281 208.179688 L 480.535156 207.890625 L 481.589844 207.625 L 482.648438 207.378906 L 483.714844 207.15625 L 484.785156 206.953125 L 485.855469 206.777344 L 486.933594 206.621094 L 488.015625 206.492188 L 489.097656 206.382813 L 490.179688 206.296875 L 491.265625 206.230469 L 492.355469 206.191406 L 493.441406 206.175781 L 494.53125 206.179688 L 495.617188 206.207031 L 496.703125 206.261719 L 497.789063 206.335938 L 498.875 206.433594 L 499.953125 206.554688 L 501.035156 206.695313 L 502.109375 206.863281 L 503.179688 207.050781 L 504.246094 207.265625 L 505.308594 207.496094 L 506.367188 207.753906 L 507.417969 208.03125 L 508.464844 208.335938 L 509.503906 208.65625 L 510.535156 209.003906 L 511.558594 209.367188 L 512.574219 209.757813 L 513.582031 210.167969 L 514.582031 210.597656 L 515.570313 211.050781 L 516.550781 211.523438 L 517.523438 212.015625 L 518.480469 212.53125 L 519.429688 213.0625 L 493.714844 257.601563 "/>
<path style="fill:none;stroke-width:0.75;stroke-linecap:round;stroke-linejoin:round;stroke:rgb(0%,0%,0%);stroke-opacity:1;stroke-miterlimit:10;" d="M 498.855469 260.570313 L 524.570313 216.03125 L 525.507813 216.585938 L 526.433594 217.160156 L 527.34375 217.753906 L 528.242188 218.367188 L 529.128906 218.996094 L 530.003906 219.648438 L 530.863281 220.316406 L 531.707031 221 L 532.535156 221.703125 L 533.351563 222.425781 L 534.148438 223.164063 L 534.933594 223.917969 L 535.699219 224.691406 L 536.449219 225.476563 L 537.183594 226.28125 L 537.902344 227.097656 L 538.601563 227.933594 L 539.28125 228.78125 L 539.945313 229.644531 L 540.589844 230.519531 L 541.21875 231.410156 L 541.824219 232.3125 L 542.414063 233.226563 L 542.980469 234.152344 L 543.53125 235.09375 L 544.058594 236.042969 L 544.570313 237.003906 L 545.058594 237.976563 L 545.523438 238.960938 L 545.972656 239.953125 L 546.398438 240.953125 L 546.800781 241.964844 L 547.183594 242.980469 L 547.546875 244.007813 L 547.886719 245.042969 L 548.203125 246.082031 L 548.496094 247.128906 L 548.769531 248.183594 L 549.023438 249.242188 L 549.25 250.304688 L 549.457031 251.375 L 549.640625 252.445313 L 549.800781 253.523438 L 549.9375 254.601563 L 550.054688 255.683594 L 550.144531 256.765625 L 550.214844 257.851563 L 550.261719 258.941406 L 550.28125 260.027344 L 550.28125 261.117188 L 550.261719 262.203125 L 550.214844 263.289063 L 550.144531 264.375 L 550.054688 265.460938 L 549.9375 266.542969 L 549.800781 267.621094 L 549.640625 268.695313 L 549.457031 269.769531 L 549.25 270.839844 L 549.023438 271.902344 L 548.769531 272.960938 L 548.496094 274.011719 L 548.203125 275.058594 L 547.886719 276.101563 L 547.546875 277.136719 L 547.183594 278.160156 L 546.800781 279.179688 L 546.398438 280.1875 L 545.972656 281.191406 L 545.523438 282.183594 L 545.058594 283.164063 L 544.570313 284.136719 L 544.058594 285.097656 L 543.53125 286.050781 L 542.980469 286.988281 L 542.414063 287.917969 L 541.824219 288.832031 L 541.21875 289.734375 L 540.589844 290.625 L 539.945313 291.5 L 539.28125 292.363281 L 538.601563 293.210938 L 537.902344 294.042969 L 537.183594 294.863281 L 536.449219 295.664063 L 535.699219 296.453125 L 534.933594 297.222656 L 534.148438 297.980469 L 533.351563 298.71875 L 532.535156 299.4375 L 531.707031 300.140625 L 530.863281 300.828125 L 530.003906 301.496094 L 529.128906 302.144531 L 528.242188 302.777344 L 527.34375 303.390625 L 526.433594 303.980469 L 525.507813 304.554688 L 524.570313 305.109375 L 498.855469 260.570313 "/>
<path style="fill:none;stroke-width:0.75;stroke-linecap:round;stroke-linejoin:round;stroke:rgb(0%,0%,0%);stroke-opacity:1;stroke-miterlimit:10;" d="M 493.714844 263.539063 L 519.429688 308.078125 L 518.480469 308.613281 L 517.523438 309.125 L 516.550781 309.621094 L 515.570313 310.09375 L 514.582031 310.546875 L 513.582031 310.976563 L 512.574219 311.386719 L 511.558594 311.773438 L 510.535156 312.140625 L 509.503906 312.484375 L 508.464844 312.808594 L 507.417969 313.109375 L 506.367188 313.386719 L 505.308594 313.644531 L 504.246094 313.878906 L 503.179688 314.089844 L 502.109375 314.28125 L 501.035156 314.445313 L 499.953125 314.589844 L 498.875 314.710938 L 497.789063 314.808594 L 496.703125 314.882813 L 495.617188 314.933594 L 494.53125 314.960938 L 493.441406 314.96875 L 492.355469 314.953125 L 491.265625 314.910156 L 490.179688 314.847656 L 489.097656 314.761719 L 488.015625 314.652344 L 486.933594 314.519531 L 485.855469 314.367188 L 484.785156 314.1875 L 483.714844 313.988281 L 482.648438 313.765625 L 481.589844 313.519531 L 480.535156 313.25 L 479.488281 312.960938 L 478.445313 312.648438 L 477.410156 312.316406 L 476.378906 311.960938 L 475.359375 311.582031 L 474.347656 311.183594 L 473.34375 310.761719 L 472.351563 310.320313 L 471.367188 309.859375 L 470.390625 309.375 L 469.425781 308.871094 L 468.472656 308.347656 L 467.53125 307.804688 L 466.601563 307.242188 L 465.679688 306.65625 L 464.777344 306.054688 L 463.882813 305.433594 L 463.003906 304.792969 L 462.136719 304.132813 L 461.285156 303.457031 L 460.449219 302.761719 L 459.625 302.050781 L 458.820313 301.320313 L 458.027344 300.574219 L 457.253906 299.808594 L 456.492188 299.03125 L 455.75 298.234375 L 455.027344 297.425781 L 454.316406 296.597656 L 453.628906 295.757813 L 452.953125 294.902344 L 452.300781 294.03125 L 451.664063 293.148438 L 451.046875 292.253906 L 450.449219 291.34375 L 449.871094 290.421875 L 449.3125 289.488281 L 448.773438 288.546875 L 448.253906 287.589844 L 447.757813 286.621094 L 447.277344 285.644531 L 446.820313 284.65625 L 446.382813 283.660156 L 445.96875 282.65625 L 445.574219 281.640625 L 445.203125 280.617188 L 444.851563 279.589844 L 444.523438 278.550781 L 444.21875 277.507813 L 443.933594 276.457031 L 443.671875 275.402344 L 443.433594 274.339844 L 443.214844 273.273438 L 443.019531 272.203125 L 442.847656 271.128906 L 442.699219 270.050781 L 442.574219 268.96875 L 442.46875 267.886719 L 442.390625 266.800781 L 442.332031 265.714844 L 442.296875 264.628906 L 442.285156 263.539063 L 493.714844 263.539063 "/>
<path style="fill:none;stroke-width:0.75;stroke-linecap:round;stroke-linejoin:round;stroke:rgb(0%,0%,0%);stroke-opacity:1;stroke-miterlimit:10;" d="M 266.855469 371.429688 L 215.429688 371.429688 L 215.453125 369.796875 L 215.53125 368.167969 L 215.660156 366.539063 L 215.84375 364.917969 L 216.074219 363.304688 L 216.359375 361.695313 L 216.691406 360.097656 L 217.078125 358.511719 L 217.511719 356.941406 L 217.996094 355.382813 L 218.53125 353.839844 L 219.113281 352.316406 L 219.742188 350.808594 L 220.421875 349.324219 L 221.144531 347.863281 L 221.917969 346.425781 L 222.730469 345.011719 L 223.59375 343.625 L 224.496094 342.265625 L 225.441406 340.9375 L 226.429688 339.636719 L 227.460938 338.371094 L 228.527344 337.136719 L 229.636719 335.9375 L 230.78125 334.777344 L 231.960938 333.648438 L 233.179688 332.5625 L 234.429688 331.511719 L 235.710938 330.503906 L 237.027344 329.535156 L 238.371094 328.609375 L 239.742188 327.726563 L 241.144531 326.890625 L 242.570313 326.097656 L 244.019531 325.347656 L 245.492188 324.648438 L 246.988281 323.992188 L 248.503906 323.386719 L 250.035156 322.828125 L 251.585938 322.320313 L 253.152344 321.859375 L 254.730469 321.449219 L 256.324219 321.089844 L 257.925781 320.78125 L 259.539063 320.523438 L 261.15625 320.316406 L 262.78125 320.160156 L 264.410156 320.058594 L 266.042969 320.007813 L 267.671875 320.007813 L 269.304688 320.058594 L 270.933594 320.160156 L 272.558594 320.316406 L 274.175781 320.523438 L 275.789063 320.78125 L 277.390625 321.089844 L 278.980469 321.449219 L 280.5625 321.859375 L 282.128906 322.320313 L 283.679688 322.828125 L 285.210938 323.386719 L 286.726563 323.992188 L 288.222656 324.648438 L 289.695313 325.347656 L 291.144531 326.097656 L 292.570313 326.890625 L 293.972656 327.726563 L 295.34375 328.609375 L 296.6875 329.535156 L 298.003906 330.503906 L 299.285156 331.511719 L 300.535156 332.5625 L 301.75 333.648438 L 302.933594 334.777344 L 304.078125 335.9375 L 305.183594 337.136719 L 306.253906 338.371094 L 307.28125 339.636719 L 308.269531 340.9375 L 309.21875 342.265625 L 310.121094 343.625 L 310.980469 345.011719 L 311.796875 346.425781 L 312.570313 347.863281 L 313.292969 349.324219 L 313.972656 350.808594 L 314.601563 352.316406 L 315.183594 353.839844 L 315.71875 355.382813 L 316.203125 356.941406 L 316.636719 358.511719 L 317.023438 360.097656 L 317.355469 361.695313 L 317.640625 363.304688 L 317.871094 364.917969 L 318.054688 366.539063 L 318.183594 368.167969 L 318.261719 369.796875 L 318.285156 371.429688 L 266.855469 371.429688 "/>
<path style="fill:none;stroke-width:0.75;stroke-linecap:round;stroke-linejoin:round;stroke:rgb(0%,0%,0%);stroke-opacity:1;stroke-miterlimit:10;" d="M 493.714844 371.886719 L 442.285156 371.886719 L 442.296875 370.800781 L 442.332031 369.710938 L 442.390625 368.625 L 442.46875 367.542969 L 442.574219 366.457031 L 442.699219 365.378906 L 442.847656 364.300781 L 443.019531 363.226563 L 443.214844 362.15625 L 443.433594 361.089844 L 443.671875 360.027344 L 443.933594 358.972656 L 444.21875 357.921875 L 444.523438 356.878906 L 444.851563 355.839844 L 445.203125 354.808594 L 445.574219 353.789063 L 445.96875 352.773438 L 446.382813 351.769531 L 446.820313 350.769531 L 447.277344 349.785156 L 447.757813 348.808594 L 448.253906 347.839844 L 448.773438 346.882813 L 449.3125 345.9375 L 449.871094 345.003906 L 450.449219 344.082031 L 451.046875 343.175781 L 451.664063 342.277344 L 452.300781 341.394531 L 452.953125 340.527344 L 453.628906 339.671875 L 454.316406 338.832031 L 455.027344 338.003906 L 455.75 337.195313 L 456.492188 336.398438 L 457.253906 335.617188 L 458.027344 334.855469 L 458.820313 334.109375 L 459.625 333.378906 L 460.449219 332.667969 L 461.285156 331.972656 L 462.136719 331.292969 L 463.003906 330.636719 L 463.882813 329.996094 L 464.777344 329.375 L 465.679688 328.769531 L 466.601563 328.1875 L 467.53125 327.625 L 468.472656 327.078125 L 469.425781 326.554688 L 470.390625 326.050781 L 471.367188 325.570313 L 472.351563 325.105469 L 473.34375 324.664063 L 474.347656 324.246094 L 475.359375 323.847656 L 476.378906 323.46875 L 477.410156 323.113281 L 478.445313 322.777344 L 479.488281 322.464844 L 480.535156 322.175781 L 481.589844 321.910156 L 482.648438 321.664063 L 483.714844 321.441406 L 484.785156 321.242188 L 485.855469 321.0625 L 486.933594 320.910156 L 488.015625 320.777344 L 489.097656 320.667969 L 490.179688 320.582031 L 491.265625 320.519531 L 492.355469 320.476563 L 493.441406 320.460938 L 494.53125 320.464844 L 495.617188 320.496094 L 496.703125 320.546875 L 497.789063 320.621094 L 498.875 320.71875 L 499.953125 320.839844 L 501.035156 320.984375 L 502.109375 321.148438 L 503.179688 321.339844 L 504.246094 321.550781 L 505.308594 321.785156 L 506.367188 322.039063 L 507.417969 322.320313 L 508.464844 322.621094 L 509.503906 322.941406 L 510.535156 323.289063 L 511.558594 323.65625 L 512.574219 324.042969 L 513.582031 324.453125 L 514.582031 324.882813 L 515.570313 325.335938 L 516.550781 325.808594 L 517.523438 326.300781 L 518.480469 326.816406 L 519.429688 327.347656 L 493.714844 371.886719 "/>
<path style="fill:none;stroke-width:0.75;stroke-linecap:round;stroke-linejoin:round;stroke:rgb(0%,0%,0%);stroke-opacity:1;stroke-miterlimit:10;" d="M 498.855469 374.855469 L 524.570313 330.320313 L 525.507813 330.871094 L 526.433594 331.445313 L 527.34375 332.039063 L 528.242188 332.652344 L 529.128906 333.28125 L 530.003906 333.933594 L 530.863281 334.601563 L 531.707031 335.285156 L 532.535156 335.988281 L 533.351563 336.710938 L 534.148438 337.449219 L 534.933594 338.203125 L 535.699219 338.976563 L 536.449219 339.761719 L 537.183594 340.566406 L 537.902344 341.382813 L 538.601563 342.21875 L 539.28125 343.066406 L 539.945313 343.929688 L 540.589844 344.804688 L 541.21875 345.695313 L 541.824219 346.597656 L 542.414063 347.511719 L 542.980469 348.4375 L 543.53125 349.378906 L 544.058594 350.328125 L 544.570313 351.292969 L 545.058594 352.261719 L 545.523438 353.246094 L 545.972656 354.238281 L 546.398438 355.238281 L 546.800781 356.25 L 547.183594 357.265625 L 547.546875 358.292969 L 547.886719 359.328125 L 548.203125 360.367188 L 548.496094 361.414063 L 548.769531 362.46875 L 549.023438 363.527344 L 549.25 364.589844 L 549.457031 365.660156 L 549.640625 366.730469 L 549.800781 367.808594 L 549.9375 368.886719 L 550.054688 369.96875 L 550.144531 371.050781 L 550.214844 372.136719 L 550.261719 373.226563 L 550.28125 374.3125 L 550.28125 375.402344 L 550.261719 376.488281 L 550.214844 377.574219 L 550.144531 378.660156 L 550.054688 379.746094 L 549.9375 380.828125 L 549.800781 381.90625 L 549.640625 382.984375 L 549.457031 384.054688 L 549.25 385.125 L 549.023438 386.1875 L 548.769531 387.246094 L 548.496094 388.300781 L 548.203125 389.347656 L 547.886719 390.386719 L 547.546875 391.421875 L 547.183594 392.445313 L 546.800781 393.464844 L 546.398438 394.476563 L 545.972656 395.476563 L 545.523438 396.46875 L 545.058594 397.449219 L 544.570313 398.421875 L 544.058594 399.386719 L 543.53125 400.335938 L 542.980469 401.273438 L 542.414063 402.203125 L 541.824219 403.117188 L 541.21875 404.019531 L 540.589844 404.910156 L 539.945313 405.785156 L 539.28125 406.648438 L 538.601563 407.496094 L 537.902344 408.328125 L 537.183594 409.148438 L 536.449219 409.953125 L 535.699219 410.738281 L 534.933594 411.511719 L 534.148438 412.265625 L 533.351563 413.003906 L 532.535156 413.722656 L 531.707031 414.429688 L 530.863281 415.113281 L 530.003906 415.78125 L 529.128906 416.433594 L 528.242188 417.0625 L 527.34375 417.675781 L 526.433594 418.269531 L 525.507813 418.839844 L 524.570313 419.394531 L 498.855469 374.855469 "/>
<path style="fill:none;stroke-width:0.75;stroke-linecap:round;stroke-linejoin:round;stroke:rgb(0%,0%,0%);stroke-opacity:1;stroke-miterlimit:10;" d="M 266.855469 485.714844 L 215.429688 485.714844 L 215.453125 484.082031 L 215.53125 482.453125 L 215.660156 480.824219 L 215.84375 479.203125 L 216.074219 477.589844 L 216.359375 475.980469 L 216.691406 474.382813 L 217.078125 472.796875 L 217.511719 471.226563 L 217.996094 469.667969 L 218.53125 468.125 L 219.113281 466.601563 L 219.742188 465.09375 L 220.421875 463.609375 L 221.144531 462.148438 L 221.917969 460.710938 L 222.730469 459.296875 L 223.59375 457.910156 L 224.496094 456.550781 L 225.441406 455.222656 L 226.429688 453.921875 L 227.460938 452.65625 L 228.527344 451.421875 L 229.636719 450.222656 L 230.78125 449.0625 L 231.960938 447.933594 L 233.179688 446.847656 L 234.429688 445.796875 L 235.710938 444.789063 L 237.027344 443.820313 L 238.371094 442.894531 L 239.742188 442.015625 L 241.144531 441.175781 L 242.570313 440.382813 L 244.019531 439.632813 L 245.492188 438.933594 L 246.988281 438.277344 L 248.503906 437.671875 L 250.035156 437.113281 L 251.585938 436.605469 L 253.152344 436.144531 L 254.730469 435.734375 L 256.324219 435.375 L 257.925781 435.066406 L 259.539063 434.808594 L 261.15625 434.601563 L 262.78125 434.449219 L 264.410156 434.34375 L 266.042969 434.292969 L 267.671875 434.292969 L 269.304688 434.34375 L 270.933594 434.449219 L 272.558594 434.601563 L 274.175781 434.808594 L 275.789063 435.066406 L 277.390625 435.375 L 278.980469 435.734375 L 280.5625 436.144531 L 282.128906 436.605469 L 283.679688 437.113281 L 285.210938 437.671875 L 286.726563 438.277344 L 288.222656 438.933594 L 289.695313 439.632813 L 291.144531 440.382813 L 292.570313 441.175781 L 293.972656 442.015625 L 295.34375 442.894531 L 296.6875 443.820313 L 298.003906 444.789063 L 299.285156 445.796875 L 300.535156 446.847656 L 301.75 447.933594 L 302.933594 449.0625 L 304.078125 450.222656 L 305.183594 451.421875 L 306.253906 452.65625 L 307.28125 453.921875 L 308.269531 455.222656 L 309.21875 456.550781 L 310.121094 457.910156 L 310.980469 459.296875 L 311.796875 460.710938 L 312.570313 462.148438 L 313.292969 463.609375 L 313.972656 465.09375 L 314.601563 466.601563 L 315.183594 468.125 L 315.71875 469.667969 L 316.203125 471.226563 L 316.636719 472.796875 L 317.023438 474.382813 L 317.355469 475.980469 L 317.640625 477.589844 L 317.871094 479.203125 L 318.054688 480.824219 L 318.183594 482.453125 L 318.261719 484.082031 L 318.285156 485.714844 L 266.855469 485.714844 "/>
<path style="fill:none;stroke-width:0.75;stroke-linecap:round;stroke-linejoin:round;stroke:rgb(0%,0%,0%);stroke-opacity:1;stroke-miterlimit:10;" d="M 493.003906 486.71875 L 441.574219 486.71875 L 441.582031 485.902344 L 441.601563 485.085938 L 441.632813 484.269531 L 441.679688 483.457031 L 441.738281 482.644531 L 441.808594 481.828125 L 441.890625 481.019531 L 441.988281 480.207031 L 442.097656 479.398438 L 442.222656 478.59375 L 442.355469 477.789063 L 442.503906 476.984375 L 442.664063 476.1875 L 442.839844 475.386719 L 443.023438 474.59375 L 443.222656 473.800781 L 443.433594 473.015625 L 443.660156 472.230469 L 443.894531 471.449219 L 444.144531 470.671875 L 444.402344 469.898438 L 444.675781 469.128906 L 444.960938 468.363281 L 445.257813 467.605469 L 445.570313 466.847656 L 445.890625 466.097656 L 446.222656 465.355469 L 446.566406 464.613281 L 446.925781 463.878906 L 447.292969 463.152344 L 447.671875 462.429688 L 448.0625 461.714844 L 448.464844 461.003906 L 448.878906 460.300781 L 449.304688 459.605469 L 449.738281 458.914063 L 450.1875 458.230469 L 450.644531 457.554688 L 451.113281 456.886719 L 451.589844 456.226563 L 452.078125 455.574219 L 452.578125 454.925781 L 453.089844 454.289063 L 453.609375 453.660156 L 454.136719 453.039063 L 454.675781 452.425781 L 455.226563 451.824219 L 455.785156 451.230469 L 456.351563 450.644531 L 456.929688 450.066406 L 457.515625 449.496094 L 458.109375 448.941406 L 458.714844 448.390625 L 459.324219 447.851563 L 459.945313 447.320313 L 460.574219 446.800781 L 461.214844 446.292969 L 461.859375 445.792969 L 462.511719 445.304688 L 463.171875 444.824219 L 463.839844 444.359375 L 464.515625 443.902344 L 465.199219 443.453125 L 465.890625 443.019531 L 466.585938 442.59375 L 467.289063 442.179688 L 468 441.777344 L 468.714844 441.386719 L 469.4375 441.007813 L 470.167969 440.640625 L 470.902344 440.28125 L 471.640625 439.9375 L 472.386719 439.605469 L 473.136719 439.28125 L 473.890625 438.972656 L 474.648438 438.675781 L 475.414063 438.390625 L 476.183594 438.117188 L 476.957031 437.859375 L 477.734375 437.609375 L 478.515625 437.375 L 479.300781 437.148438 L 480.089844 436.9375 L 480.878906 436.738281 L 481.675781 436.554688 L 482.472656 436.378906 L 483.269531 436.21875 L 484.074219 436.070313 L 484.878906 435.9375 L 485.683594 435.8125 L 486.492188 435.703125 L 487.304688 435.605469 L 488.117188 435.523438 L 488.929688 435.453125 L 489.742188 435.394531 L 490.558594 435.347656 L 491.371094 435.316406 L 492.1875 435.296875 L 493.003906 435.289063 L 493.003906 486.71875 "/>
<path style="fill:none;stroke-width:0.75;stroke-linecap:round;stroke-linejoin:round;stroke:rgb(0%,0%,0%);stroke-opacity:1;stroke-miterlimit:10;" d="M 497.851563 486.71875 L 497.851563 435.289063 L 498.667969 435.296875 L 499.484375 435.316406 L 500.300781 435.347656 L 501.113281 435.394531 L 501.929688 435.453125 L 502.742188 435.523438 L 503.554688 435.605469 L 504.363281 435.703125 L 505.171875 435.8125 L 505.980469 435.9375 L 506.785156 436.070313 L 507.585938 436.21875 L 508.386719 436.378906 L 509.183594 436.554688 L 509.976563 436.738281 L 510.769531 436.9375 L 511.558594 437.148438 L 512.34375 437.375 L 513.125 437.609375 L 513.898438 437.859375 L 514.671875 438.117188 L 515.441406 438.390625 L 516.207031 438.675781 L 516.96875 438.972656 L 517.722656 439.28125 L 518.472656 439.605469 L 519.21875 439.9375 L 519.957031 440.28125 L 520.691406 440.640625 L 521.417969 441.007813 L 522.140625 441.386719 L 522.855469 441.777344 L 523.566406 442.179688 L 524.269531 442.59375 L 524.96875 443.019531 L 525.65625 443.453125 L 526.339844 443.902344 L 527.015625 444.359375 L 527.683594 444.824219 L 528.34375 445.304688 L 529 445.792969 L 529.644531 446.292969 L 530.28125 446.800781 L 530.910156 447.320313 L 531.53125 447.851563 L 532.144531 448.390625 L 532.746094 448.941406 L 533.34375 449.496094 L 533.929688 450.066406 L 534.503906 450.644531 L 535.074219 451.230469 L 535.632813 451.824219 L 536.179688 452.425781 L 536.71875 453.039063 L 537.25 453.660156 L 537.769531 454.289063 L 538.277344 454.925781 L 538.777344 455.574219 L 539.265625 456.226563 L 539.746094 456.886719 L 540.214844 457.554688 L 540.671875 458.230469 L 541.117188 458.914063 L 541.554688 459.605469 L 541.976563 460.300781 L 542.390625 461.003906 L 542.792969 461.714844 L 543.183594 462.429688 L 543.566406 463.152344 L 543.933594 463.878906 L 544.289063 464.613281 L 544.632813 465.355469 L 544.96875 466.097656 L 545.289063 466.847656 L 545.597656 467.605469 L 545.894531 468.363281 L 546.179688 469.128906 L 546.453125 469.898438 L 546.714844 470.671875 L 546.960938 471.449219 L 547.199219 472.230469 L 547.421875 473.015625 L 547.632813 473.800781 L 547.832031 474.59375 L 548.019531 475.386719 L 548.191406 476.1875 L 548.351563 476.984375 L 548.5 477.789063 L 548.636719 478.59375 L 548.757813 479.398438 L 548.867188 480.207031 L 548.964844 481.019531 L 549.046875 481.828125 L 549.121094 482.644531 L 549.179688 483.457031 L 549.222656 484.269531 L 549.253906 485.085938 L 549.273438 485.902344 L 549.28125 486.71875 L 497.851563 486.71875 "/>
<path style="fill:none;stroke-width:0.75;stroke-linecap:round;stroke-linejoin:round;stroke:rgb(0%,0%,0%);stroke-opacity:1;stroke-miterlimit:10;" d="M 497.851563 491.566406 L 549.28125 491.566406 L 549.273438 492.382813 L 549.253906 493.199219 L 549.222656 494.015625 L 549.179688 494.828125 L 549.121094 495.644531 L 549.046875 496.457031 L 548.964844 497.265625 L 548.867188 498.078125 L 548.757813 498.886719 L 548.636719 499.691406 L 548.5 500.496094 L 548.351563 501.300781 L 548.191406 502.101563 L 548.019531 502.898438 L 547.832031 503.691406 L 547.632813 504.484375 L 547.421875 505.273438 L 547.199219 506.054688 L 546.960938 506.835938 L 546.714844 507.613281 L 546.453125 508.386719 L 546.179688 509.15625 L 545.894531 509.921875 L 545.597656 510.679688 L 545.289063 511.4375 L 544.96875 512.1875 L 544.632813 512.929688 L 544.289063 513.671875 L 543.933594 514.40625 L 543.566406 515.132813 L 543.183594 515.855469 L 542.792969 516.570313 L 542.390625 517.28125 L 541.976563 517.984375 L 541.554688 518.683594 L 541.117188 519.371094 L 540.671875 520.054688 L 540.214844 520.730469 L 539.746094 521.398438 L 539.265625 522.058594 L 538.777344 522.710938 L 538.277344 523.359375 L 537.769531 523.996094 L 537.25 524.625 L 536.71875 525.246094 L 536.179688 525.859375 L 535.632813 526.460938 L 535.074219 527.058594 L 534.503906 527.644531 L 533.929688 528.21875 L 533.34375 528.789063 L 532.746094 529.347656 L 532.144531 529.894531 L 531.53125 530.433594 L 530.910156 530.964844 L 530.28125 531.484375 L 529.644531 531.992188 L 529 532.492188 L 528.34375 532.980469 L 527.683594 533.460938 L 527.015625 533.925781 L 526.339844 534.386719 L 525.65625 534.832031 L 524.96875 535.265625 L 524.269531 535.691406 L 523.566406 536.105469 L 522.855469 536.507813 L 522.140625 536.898438 L 521.417969 537.277344 L 520.691406 537.648438 L 519.957031 538.003906 L 519.21875 538.347656 L 518.472656 538.679688 L 517.722656 539.003906 L 516.96875 539.3125 L 516.207031 539.609375 L 515.441406 539.894531 L 514.671875 540.167969 L 513.898438 540.429688 L 513.125 540.675781 L 512.34375 540.914063 L 511.558594 541.136719 L 510.769531 541.347656 L 509.976563 541.546875 L 509.183594 541.730469 L 508.386719 541.90625 L 507.585938 542.066406 L 506.785156 542.214844 L 505.980469 542.351563 L 505.171875 542.472656 L 504.363281 542.582031 L 503.554688 542.679688 L 502.742188 542.761719 L 501.929688 542.835938 L 501.113281 542.890625 L 500.300781 542.9375 L 499.484375 542.96875 L 498.667969 542.988281 L 497.851563 542.996094 L 497.851563 491.566406 "/>
<path style="fill:none;stroke-width:0.75;stroke-linecap:round;stroke-linejoin:round;stroke:rgb(0%,0%,0%);stroke-opacity:1;stroke-miterlimit:10;" d="M 493.003906 491.566406 L 493.003906 542.996094 L 492.1875 542.988281 L 491.371094 542.96875 L 490.558594 542.9375 L 489.742188 542.890625 L 488.929688 542.835938 L 488.117188 542.761719 L 487.304688 542.679688 L 486.492188 542.582031 L 485.683594 542.472656 L 484.878906 542.351563 L 484.074219 542.214844 L 483.269531 542.066406 L 482.472656 541.90625 L 481.675781 541.730469 L 480.878906 541.546875 L 480.089844 541.347656 L 479.300781 541.136719 L 478.515625 540.914063 L 477.734375 540.675781 L 476.957031 540.429688 L 476.183594 540.167969 L 475.414063 539.894531 L 474.648438 539.609375 L 473.890625 539.3125 L 473.136719 539.003906 L 472.386719 538.679688 L 471.640625 538.347656 L 470.902344 538.003906 L 470.167969 537.648438 L 469.4375 537.277344 L 468.714844 536.898438 L 468 536.507813 L 467.289063 536.105469 L 466.585938 535.691406 L 465.890625 535.265625 L 465.199219 534.832031 L 464.515625 534.386719 L 463.839844 533.925781 L 463.171875 533.460938 L 462.511719 532.980469 L 461.859375 532.492188 L 461.214844 531.992188 L 460.574219 531.484375 L 459.945313 530.964844 L 459.324219 530.433594 L 458.714844 529.894531 L 458.109375 529.347656 L 457.515625 528.789063 L 456.929688 528.21875 L 456.351563 527.644531 L 455.785156 527.058594 L 455.226563 526.460938 L 454.675781 525.859375 L 454.136719 525.246094 L 453.609375 524.625 L 453.089844 523.996094 L 452.578125 523.359375 L 452.078125 522.710938 L 451.589844 522.058594 L 451.113281 521.398438 L 450.644531 520.730469 L 450.1875 520.054688 L 449.738281 519.371094 L 449.304688 518.683594 L 448.878906 517.984375 L 448.464844 517.28125 L 448.0625 516.570313 L 447.671875 515.855469 L 447.292969 515.132813 L 446.925781 514.40625 L 446.566406 513.671875 L 446.222656 512.929688 L 445.890625 512.1875 L 445.570313 511.4375 L 445.257813 510.679688 L 444.960938 509.921875 L 444.675781 509.15625 L 444.402344 508.386719 L 444.144531 507.613281 L 443.894531 506.835938 L 443.660156 506.054688 L 443.433594 505.273438 L 443.222656 504.484375 L 443.023438 503.691406 L 442.839844 502.898438 L 442.664063 502.101563 L 442.503906 501.300781 L 442.355469 500.496094 L 442.222656 499.691406 L 442.097656 498.886719 L 441.988281 498.078125 L 441.890625 497.265625 L 441.808594 496.457031 L 441.738281 495.644531 L 441.679688 494.828125 L 441.632813 494.015625 L 441.601563 493.199219 L 441.582031 492.382813 L 441.574219 491.566406 L 493.003906 491.566406 "/>
<path style="fill:none;stroke-width:0.75;stroke-linecap:round;stroke-linejoin:round;stroke:rgb(0%,0%,0%);stroke-opacity:1;stroke-miterlimit:10;" d="M 265.144531 600.460938 L 213.714844 600.460938 L 213.726563 599.371094 L 213.761719 598.285156 L 213.816406 597.199219 L 213.898438 596.113281 L 214 595.03125 L 214.128906 593.949219 L 214.277344 592.871094 L 214.449219 591.796875 L 214.644531 590.726563 L 214.859375 589.660156 L 215.101563 588.597656 L 215.363281 587.542969 L 215.648438 586.492188 L 215.953125 585.449219 L 216.28125 584.410156 L 216.632813 583.382813 L 217.003906 582.359375 L 217.398438 581.34375 L 217.8125 580.339844 L 218.25 579.34375 L 218.707031 578.355469 L 219.183594 577.378906 L 219.683594 576.410156 L 220.203125 575.453125 L 220.742188 574.511719 L 221.300781 573.578125 L 221.878906 572.65625 L 222.476563 571.746094 L 223.09375 570.851563 L 223.730469 569.96875 L 224.382813 569.097656 L 225.054688 568.242188 L 225.746094 567.402344 L 226.453125 566.574219 L 227.179688 565.765625 L 227.921875 564.96875 L 228.679688 564.191406 L 229.457031 563.425781 L 230.25 562.679688 L 231.054688 561.949219 L 231.878906 561.238281 L 232.714844 560.542969 L 233.566406 559.867188 L 234.433594 559.207031 L 235.3125 558.566406 L 236.203125 557.945313 L 237.109375 557.34375 L 238.027344 556.757813 L 238.957031 556.195313 L 239.902344 555.652344 L 240.855469 555.128906 L 241.820313 554.625 L 242.792969 554.140625 L 243.777344 553.679688 L 244.773438 553.238281 L 245.777344 552.816406 L 246.789063 552.417969 L 247.808594 552.039063 L 248.835938 551.683594 L 249.871094 551.351563 L 250.914063 551.039063 L 251.964844 550.75 L 253.019531 550.480469 L 254.078125 550.234375 L 255.144531 550.011719 L 256.210938 549.8125 L 257.285156 549.632813 L 258.363281 549.480469 L 259.441406 549.347656 L 260.523438 549.238281 L 261.609375 549.152344 L 262.695313 549.089844 L 263.78125 549.046875 L 264.871094 549.03125 L 265.957031 549.039063 L 267.046875 549.066406 L 268.132813 549.117188 L 269.21875 549.191406 L 270.300781 549.289063 L 271.382813 549.410156 L 272.460938 549.554688 L 273.539063 549.71875 L 274.609375 549.910156 L 275.675781 550.121094 L 276.738281 550.355469 L 277.796875 550.613281 L 278.847656 550.890625 L 279.894531 551.191406 L 280.933594 551.515625 L 281.964844 551.859375 L 282.988281 552.226563 L 284.003906 552.613281 L 285.011719 553.023438 L 286.011719 553.453125 L 287 553.90625 L 287.980469 554.378906 L 288.949219 554.875 L 289.910156 555.386719 L 290.855469 555.921875 L 265.144531 600.460938 "/>
<path style="fill:none;stroke-width:0.75;stroke-linecap:round;stroke-linejoin:round;stroke:rgb(0%,0%,0%);stroke-opacity:1;stroke-miterlimit:10;" d="M 493.714844 600.460938 L 442.285156 600.460938 L 442.296875 599.371094 L 442.332031 598.285156 L 442.390625 597.199219 L 442.46875 596.113281 L 442.574219 595.03125 L 442.699219 593.949219 L 442.847656 592.871094 L 443.019531 591.796875 L 443.214844 590.726563 L 443.433594 589.660156 L 443.671875 588.597656 L 443.933594 587.542969 L 444.21875 586.492188 L 444.523438 585.449219 L 444.851563 584.410156 L 445.203125 583.382813 L 445.574219 582.359375 L 445.96875 581.34375 L 446.382813 580.339844 L 446.820313 579.34375 L 447.277344 578.355469 L 447.757813 577.378906 L 448.253906 576.410156 L 448.773438 575.453125 L 449.3125 574.511719 L 449.871094 573.578125 L 450.449219 572.65625 L 451.046875 571.746094 L 451.664063 570.851563 L 452.300781 569.96875 L 452.953125 569.097656 L 453.628906 568.242188 L 454.316406 567.402344 L 455.027344 566.574219 L 455.75 565.765625 L 456.492188 564.96875 L 457.253906 564.191406 L 458.027344 563.425781 L 458.820313 562.679688 L 459.625 561.949219 L 460.449219 561.238281 L 461.285156 560.542969 L 462.136719 559.867188 L 463.003906 559.207031 L 463.882813 558.566406 L 464.777344 557.945313 L 465.679688 557.34375 L 466.601563 556.757813 L 467.53125 556.195313 L 468.472656 555.652344 L 469.425781 555.128906 L 470.390625 554.625 L 471.367188 554.140625 L 472.351563 553.679688 L 473.34375 553.238281 L 474.347656 552.816406 L 475.359375 552.417969 L 476.378906 552.039063 L 477.410156 551.683594 L 478.445313 551.351563 L 479.488281 551.039063 L 480.535156 550.75 L 481.589844 550.480469 L 482.648438 550.234375 L 483.714844 550.011719 L 484.785156 549.8125 L 485.855469 549.632813 L 486.933594 549.480469 L 488.015625 549.347656 L 489.097656 549.238281 L 490.179688 549.152344 L 491.265625 549.089844 L 492.355469 549.046875 L 493.441406 549.03125 L 494.53125 549.039063 L 495.617188 549.066406 L 496.703125 549.117188 L 497.789063 549.191406 L 498.875 549.289063 L 499.953125 549.410156 L 501.035156 549.554688 L 502.109375 549.71875 L 503.179688 549.910156 L 504.246094 550.121094 L 505.308594 550.355469 L 506.367188 550.613281 L 507.417969 550.890625 L 508.464844 551.191406 L 509.503906 551.515625 L 510.535156 551.859375 L 511.558594 552.226563 L 512.574219 552.613281 L 513.582031 553.023438 L 514.582031 553.453125 L 515.570313 553.90625 L 516.550781 554.378906 L 517.523438 554.875 L 518.480469 555.386719 L 519.429688 555.921875 L 493.714844 600.460938 "/>
<path style="fill:none;stroke-width:0.75;stroke-linecap:round;stroke-linejoin:round;stroke:rgb(0%,0%,0%);stroke-opacity:1;stroke-miterlimit:10;" d="M 498.855469 603.429688 L 524.570313 558.890625 L 525.507813 559.445313 L 526.433594 560.019531 L 527.34375 560.609375 L 528.242188 561.222656 L 529.128906 561.855469 L 530.003906 562.503906 L 530.863281 563.171875 L 531.707031 563.859375 L 532.535156 564.5625 L 533.351563 565.28125 L 534.148438 566.019531 L 534.933594 566.777344 L 535.699219 567.546875 L 536.449219 568.335938 L 537.183594 569.136719 L 537.902344 569.957031 L 538.601563 570.789063 L 539.28125 571.636719 L 539.945313 572.5 L 540.589844 573.375 L 541.21875 574.265625 L 541.824219 575.167969 L 542.414063 576.082031 L 542.980469 577.011719 L 543.53125 577.949219 L 544.058594 578.902344 L 544.570313 579.863281 L 545.058594 580.835938 L 545.523438 581.816406 L 545.972656 582.808594 L 546.398438 583.8125 L 546.800781 584.820313 L 547.183594 585.839844 L 547.546875 586.863281 L 547.886719 587.898438 L 548.203125 588.941406 L 548.496094 589.988281 L 548.769531 591.039063 L 549.023438 592.097656 L 549.25 593.160156 L 549.457031 594.230469 L 549.640625 595.304688 L 549.800781 596.378906 L 549.9375 597.457031 L 550.054688 598.539063 L 550.144531 599.625 L 550.214844 600.710938 L 550.261719 601.796875 L 550.28125 602.882813 L 550.28125 603.972656 L 550.261719 605.058594 L 550.214844 606.148438 L 550.144531 607.234375 L 550.054688 608.316406 L 549.9375 609.398438 L 549.800781 610.476563 L 549.640625 611.554688 L 549.457031 612.625 L 549.25 613.695313 L 549.023438 614.757813 L 548.769531 615.816406 L 548.496094 616.871094 L 548.203125 617.917969 L 547.886719 618.957031 L 547.546875 619.992188 L 547.183594 621.019531 L 546.800781 622.035156 L 546.398438 623.046875 L 545.972656 624.046875 L 545.523438 625.039063 L 545.058594 626.023438 L 544.570313 626.996094 L 544.058594 627.957031 L 543.53125 628.90625 L 542.980469 629.847656 L 542.414063 630.773438 L 541.824219 631.6875 L 541.21875 632.589844 L 540.589844 633.480469 L 539.945313 634.355469 L 539.28125 635.21875 L 538.601563 636.066406 L 537.902344 636.902344 L 537.183594 637.71875 L 536.449219 638.523438 L 535.699219 639.308594 L 534.933594 640.082031 L 534.148438 640.835938 L 533.351563 641.574219 L 532.535156 642.296875 L 531.707031 643 L 530.863281 643.683594 L 530.003906 644.351563 L 529.128906 645.003906 L 528.242188 645.632813 L 527.34375 646.246094 L 526.433594 646.839844 L 525.507813 647.414063 L 524.570313 647.96875 L 498.855469 603.429688 "/>
<path style="fill:none;stroke-width:0.75;stroke-linecap:round;stroke-linejoin:round;stroke:rgb(0%,0%,0%);stroke-opacity:1;stroke-miterlimit:10;" d="M 266.855469 714.285156 L 215.429688 714.285156 L 215.453125 712.652344 L 215.53125 711.023438 L 215.660156 709.398438 L 215.84375 707.773438 L 216.074219 706.160156 L 216.359375 704.554688 L 216.691406 702.957031 L 217.078125 701.371094 L 217.511719 699.796875 L 217.996094 698.238281 L 218.53125 696.695313 L 219.113281 695.171875 L 219.742188 693.667969 L 220.421875 692.183594 L 221.144531 690.71875 L 221.917969 689.28125 L 222.730469 687.867188 L 223.59375 686.480469 L 224.496094 685.121094 L 225.441406 683.792969 L 226.429688 682.496094 L 227.460938 681.226563 L 228.527344 679.996094 L 229.636719 678.796875 L 230.78125 677.632813 L 231.960938 676.507813 L 233.179688 675.417969 L 234.429688 674.371094 L 235.710938 673.359375 L 237.027344 672.394531 L 238.371094 671.46875 L 239.742188 670.585938 L 241.144531 669.746094 L 242.570313 668.953125 L 244.019531 668.207031 L 245.492188 667.503906 L 246.988281 666.851563 L 248.503906 666.242188 L 250.035156 665.6875 L 251.585938 665.175781 L 253.152344 664.714844 L 254.730469 664.308594 L 256.324219 663.949219 L 257.925781 663.636719 L 259.539063 663.378906 L 261.15625 663.175781 L 262.78125 663.019531 L 264.410156 662.914063 L 266.042969 662.863281 L 267.671875 662.863281 L 269.304688 662.914063 L 270.933594 663.019531 L 272.558594 663.175781 L 274.175781 663.378906 L 275.789063 663.636719 L 277.390625 663.949219 L 278.980469 664.308594 L 280.5625 664.714844 L 282.128906 665.175781 L 283.679688 665.6875 L 285.210938 666.242188 L 286.726563 666.851563 L 288.222656 667.503906 L 289.695313 668.207031 L 291.144531 668.953125 L 292.570313 669.746094 L 293.972656 670.585938 L 295.34375 671.46875 L 296.6875 672.394531 L 298.003906 673.359375 L 299.285156 674.371094 L 300.535156 675.417969 L 301.75 676.507813 L 302.933594 677.632813 L 304.078125 678.796875 L 305.183594 679.996094 L 306.253906 681.226563 L 307.28125 682.496094 L 308.269531 683.792969 L 309.21875 685.121094 L 310.121094 686.480469 L 310.980469 687.867188 L 311.796875 689.28125 L 312.570313 690.71875 L 313.292969 692.183594 L 313.972656 693.667969 L 314.601563 695.171875 L 315.183594 696.695313 L 315.71875 698.238281 L 316.203125 699.796875 L 316.636719 701.371094 L 317.023438 702.957031 L 317.355469 704.554688 L 317.640625 706.160156 L 317.871094 707.773438 L 318.054688 709.398438 L 318.183594 711.023438 L 318.261719 712.652344 L 318.285156 714.285156 L 266.855469 714.285156 "/>
<path style="fill:none;stroke-width:0.75;stroke-linecap:round;stroke-linejoin:round;stroke:rgb(0%,0%,0%);stroke-opacity:1;stroke-miterlimit:10;" d="M 493.003906 715.289063 L 441.574219 715.289063 L 441.582031 714.472656 L 441.601563 713.65625 L 441.632813 712.84375 L 441.679688 712.027344 L 441.738281 711.214844 L 441.808594 710.402344 L 441.890625 709.589844 L 441.988281 708.78125 L 442.097656 707.972656 L 442.222656 707.164063 L 442.355469 706.359375 L 442.503906 705.558594 L 442.664063 704.757813 L 442.839844 703.960938 L 443.023438 703.164063 L 443.222656 702.375 L 443.433594 701.585938 L 443.660156 700.800781 L 443.894531 700.019531 L 444.144531 699.242188 L 444.402344 698.46875 L 444.675781 697.699219 L 444.960938 696.9375 L 445.257813 696.175781 L 445.570313 695.421875 L 445.890625 694.671875 L 446.222656 693.925781 L 446.566406 693.1875 L 446.925781 692.453125 L 447.292969 691.722656 L 447.671875 691 L 448.0625 690.285156 L 448.464844 689.574219 L 448.878906 688.871094 L 449.304688 688.175781 L 449.738281 687.484375 L 450.1875 686.800781 L 450.644531 686.125 L 451.113281 685.457031 L 451.589844 684.796875 L 452.078125 684.144531 L 452.578125 683.5 L 453.089844 682.863281 L 453.609375 682.230469 L 454.136719 681.613281 L 454.675781 681 L 455.226563 680.394531 L 455.785156 679.800781 L 456.351563 679.214844 L 456.929688 678.636719 L 457.515625 678.070313 L 458.109375 677.511719 L 458.714844 676.960938 L 459.324219 676.421875 L 459.945313 675.894531 L 460.574219 675.375 L 461.214844 674.863281 L 461.859375 674.363281 L 462.511719 673.875 L 463.171875 673.398438 L 463.839844 672.929688 L 464.515625 672.472656 L 465.199219 672.027344 L 465.890625 671.589844 L 466.585938 671.164063 L 467.289063 670.75 L 468 670.347656 L 468.714844 669.957031 L 469.4375 669.578125 L 470.167969 669.210938 L 470.902344 668.855469 L 471.640625 668.507813 L 472.386719 668.175781 L 473.136719 667.855469 L 473.890625 667.546875 L 474.648438 667.246094 L 475.414063 666.960938 L 476.183594 666.691406 L 476.957031 666.429688 L 477.734375 666.179688 L 478.515625 665.945313 L 479.300781 665.722656 L 480.089844 665.507813 L 480.878906 665.3125 L 481.675781 665.125 L 482.472656 664.953125 L 483.269531 664.789063 L 484.074219 664.644531 L 484.878906 664.507813 L 485.683594 664.386719 L 486.492188 664.273438 L 487.304688 664.179688 L 488.117188 664.09375 L 488.929688 664.023438 L 489.742188 663.964844 L 490.558594 663.917969 L 491.371094 663.886719 L 492.1875 663.867188 L 493.003906 663.863281 L 493.003906 715.289063 "/>
<path style="fill:none;stroke-width:0.75;stroke-linecap:round;stroke-linejoin:round;stroke:rgb(0%,0%,0%);stroke-opacity:1;stroke-miterlimit:10;" d="M 497.851563 715.289063 L 497.851563 663.863281 L 498.667969 663.867188 L 499.484375 663.886719 L 500.300781 663.917969 L 501.113281 663.964844 L 501.929688 664.023438 L 502.742188 664.09375 L 503.554688 664.179688 L 504.363281 664.273438 L 505.171875 664.386719 L 505.980469 664.507813 L 506.785156 664.644531 L 507.585938 664.789063 L 508.386719 664.953125 L 509.183594 665.125 L 509.976563 665.3125 L 510.769531 665.507813 L 511.558594 665.722656 L 512.34375 665.945313 L 513.125 666.179688 L 513.898438 666.429688 L 514.671875 666.691406 L 515.441406 666.960938 L 516.207031 667.246094 L 516.96875 667.546875 L 517.722656 667.855469 L 518.472656 668.175781 L 519.21875 668.507813 L 519.957031 668.855469 L 520.691406 669.210938 L 521.417969 669.578125 L 522.140625 669.957031 L 522.855469 670.347656 L 523.566406 670.75 L 524.269531 671.164063 L 524.96875 671.589844 L 525.65625 672.027344 L 526.339844 672.472656 L 527.015625 672.929688 L 527.683594 673.398438 L 528.34375 673.875 L 529 674.363281 L 529.644531 674.863281 L 530.28125 675.375 L 530.910156 675.894531 L 531.53125 676.421875 L 532.144531 676.960938 L 532.746094 677.511719 L 533.34375 678.070313 L 533.929688 678.636719 L 534.503906 679.214844 L 535.074219 679.800781 L 535.632813 680.394531 L 536.179688 681 L 536.71875 681.613281 L 537.25 682.230469 L 537.769531 682.863281 L 538.277344 683.5 L 538.777344 684.144531 L 539.265625 684.796875 L 539.746094 685.457031 L 540.214844 686.125 L 540.671875 686.800781 L 541.117188 687.484375 L 541.554688 688.175781 L 541.976563 688.871094 L 542.390625 689.574219 L 542.792969 690.285156 L 543.183594 691 L 543.566406 691.722656 L 543.933594 692.453125 L 544.289063 693.1875 L 544.632813 693.925781 L 544.96875 694.671875 L 545.289063 695.421875 L 545.597656 696.175781 L 545.894531 696.9375 L 546.179688 697.699219 L 546.453125 698.46875 L 546.714844 699.242188 L 546.960938 700.019531 L 547.199219 700.800781 L 547.421875 701.585938 L 547.632813 702.375 L 547.832031 703.164063 L 548.019531 703.960938 L 548.191406 704.757813 L 548.351563 705.558594 L 548.5 706.359375 L 548.636719 707.164063 L 548.757813 707.972656 L 548.867188 708.78125 L 548.964844 709.589844 L 549.046875 710.402344 L 549.121094 711.214844 L 549.179688 712.027344 L 549.222656 712.84375 L 549.253906 713.65625 L 549.273438 714.472656 L 549.28125 715.289063 L 497.851563 715.289063 "/>
<path style="fill:none;stroke-width:0.75;stroke-linecap:round;stroke-linejoin:round;stroke:rgb(0%,0%,0%);stroke-opacity:1;stroke-miterlimit:10;" d="M 497.851563 720.136719 L 549.28125 720.136719 L 549.273438 720.953125 L 549.253906 721.769531 L 549.222656 722.585938 L 549.179688 723.402344 L 549.121094 724.214844 L 549.046875 725.027344 L 548.964844 725.839844 L 548.867188 726.648438 L 548.757813 727.457031 L 548.636719 728.265625 L 548.5 729.070313 L 548.351563 729.871094 L 548.191406 730.671875 L 548.019531 731.46875 L 547.832031 732.261719 L 547.632813 733.054688 L 547.421875 733.84375 L 547.199219 734.628906 L 546.960938 735.410156 L 546.714844 736.1875 L 546.453125 736.960938 L 546.179688 737.726563 L 545.894531 738.492188 L 545.597656 739.253906 L 545.289063 740.007813 L 544.96875 740.757813 L 544.632813 741.503906 L 544.289063 742.242188 L 543.933594 742.976563 L 543.566406 743.703125 L 543.183594 744.425781 L 542.792969 745.144531 L 542.390625 745.851563 L 541.976563 746.554688 L 541.554688 747.253906 L 541.117188 747.941406 L 540.671875 748.625 L 540.214844 749.300781 L 539.746094 749.96875 L 539.265625 750.632813 L 538.777344 751.285156 L 538.277344 751.929688 L 537.769531 752.566406 L 537.25 753.195313 L 536.71875 753.816406 L 536.179688 754.429688 L 535.632813 755.035156 L 535.074219 755.628906 L 534.503906 756.214844 L 533.929688 756.792969 L 533.34375 757.359375 L 532.746094 757.917969 L 532.144531 758.464844 L 531.53125 759.003906 L 530.910156 759.535156 L 530.28125 760.054688 L 529.644531 760.5625 L 529 761.0625 L 528.34375 761.550781 L 527.683594 762.03125 L 527.015625 762.5 L 526.339844 762.957031 L 525.65625 763.402344 L 524.96875 763.839844 L 524.269531 764.261719 L 523.566406 764.675781 L 522.855469 765.078125 L 522.140625 765.46875 L 521.417969 765.851563 L 520.691406 766.21875 L 519.957031 766.574219 L 519.21875 766.917969 L 518.472656 767.253906 L 517.722656 767.574219 L 516.96875 767.882813 L 516.207031 768.179688 L 515.441406 768.464844 L 514.671875 768.738281 L 513.898438 769 L 513.125 769.246094 L 512.34375 769.484375 L 511.558594 769.707031 L 510.769531 769.917969 L 509.976563 770.117188 L 509.183594 770.304688 L 508.386719 770.476563 L 507.585938 770.636719 L 506.785156 770.785156 L 505.980469 770.921875 L 505.171875 771.042969 L 504.363281 771.152344 L 503.554688 771.25 L 502.742188 771.335938 L 501.929688 771.40625 L 501.113281 771.464844 L 500.300781 771.507813 L 499.484375 771.542969 L 498.667969 771.5625 L 497.851563 771.566406 L 497.851563 720.136719 "/>
</g>
</svg>
